<svg xmlns="http://www.w3.org/2000/svg" width="32.866" height="41" viewBox="0 0 32.866 41">
  <g id="Bonds_white" data-name="Bonds white" transform="translate(-1.455 -2.76)">
    <path id="Path_39520" data-name="Path 39520" d="M28.927,15.738l-5.676-5.67v4.643a1.028,1.028,0,0,0,1.027,1.027Z" transform="translate(-1.432 -0.479)" fill="#fcfdff"/>
    <path id="Path_39521" data-name="Path 39521" d="M19.932,14.618V8.638H6.01L6,8.641l-.011,0H2.381a.927.927,0,0,0-.926.926V43.221a.927.927,0,0,0,.926.926H27.9a.927.927,0,0,0,.926-.926V39.609s0-.007,0-.011,0-.007,0-.011V17.533H22.847A2.919,2.919,0,0,1,19.932,14.618Zm-13.65-.394H14.2a.944.944,0,0,1,0,1.888H6.281a.944.944,0,0,1,0-1.888ZM24,40.8H6.29a.944.944,0,0,1,0-1.888H24A.944.944,0,1,1,24,40.8Zm0-6.17H6.29a.944.944,0,0,1,0-1.888H24a.944.944,0,1,1,0,1.888Zm0-6.176H6.29a.944.944,0,0,1,0-1.888H24a.944.944,0,0,1,0,1.888Zm.944-7.119a.944.944,0,0,1-.944.944H6.29a.944.944,0,0,1,0-1.888H24A.944.944,0,0,1,24.941,21.339Z" transform="translate(0 -0.386)" fill="#fcfdff"/>
    <path id="Path_39522" data-name="Path 39522" d="M33.782,2.76H8.254a.926.926,0,0,0-.925.925V6.364h13.85a1.036,1.036,0,0,1,.751.272l8.819,8.817a.939.939,0,0,1,.376.75.881.881,0,0,1-.021.1V38.267h2.679a.926.926,0,0,0,.925-.926V3.685A.926.926,0,0,0,33.782,2.76Z" transform="translate(-0.386 0)" fill="#fcfdff"/>
  </g>
</svg>
