<svg xmlns="http://www.w3.org/2000/svg" width="30.307" height="30" viewBox="0 0 30.307 30">
  <g id="Eligibility_Criteria" data-name="Eligibility Criteria" transform="translate(-61.4 -65.07)">
    <g id="Group_32851" data-name="Group 32851" transform="translate(61.4 65.07)">
      <path id="Path_39454" data-name="Path 39454" d="M63.434,66.312h6.51V75.72l3.871-3.193,3.871,3.193V66.312H84.2a2.041,2.041,0,0,1,2.034,2.034v12.7a7.107,7.107,0,1,1-7.883,10.3H63.434A2.041,2.041,0,0,1,61.4,89.308V68.346A2.041,2.041,0,0,1,63.434,66.312ZM81.11,88.64a1.049,1.049,0,0,1,1.471-1.5l1.18,1.156,2.852-2.883A1.048,1.048,0,0,1,88.1,86.9l-3.58,3.618a1.048,1.048,0,0,1-1.482.012L81.11,88.64Zm-3.087-3.37H64.391v2.393H77.5A7.064,7.064,0,0,1,78.024,85.27ZM84.6,82.863a5.1,5.1,0,1,0,5.1,5.1A5.1,5.1,0,0,0,84.6,82.863ZM70.986,65.07h5.662v8.442l-2.831-2.334-2.83,2.334Z" transform="translate(-61.4 -65.07)" fill="#fcfdff" fill-rule="evenodd"/>
    </g>
  </g>
</svg>
