<svg xmlns="http://www.w3.org/2000/svg" width="32.86" height="30" viewBox="0 0 32.86 30">
  <g id="FAQ_s" data-name="FAQ&apos;s" transform="translate(-1.8 -5.998)">
    <path id="Path_39464" data-name="Path 39464" d="M24.546,26.158,26.59,28.2a3.545,3.545,0,0,1-3.541,3.337H10.892L6.874,35.59A1.216,1.216,0,0,1,5.954,36,1.33,1.33,0,0,1,4.626,34.67V31.5A3.575,3.575,0,0,1,1.8,28.03V17.27a3.539,3.539,0,0,1,3.541-3.541H7.487v2.486H5.341a1.069,1.069,0,0,0-1.09,1.056V28a1.1,1.1,0,0,0,1.09,1.09H7.112v2.792L9.9,29.086H23.082A1.1,1.1,0,0,0,24.172,28V26.158h.375ZM34.66,9.54V20.267a3.575,3.575,0,0,1-2.826,3.473v3.167a1.517,1.517,0,0,1-.409.987,1.627,1.627,0,0,1-.953.341,1.345,1.345,0,0,1-.953-.409l-3.984-3.984H13.378A3.539,3.539,0,0,1,9.836,20.3V9.54A3.539,3.539,0,0,1,13.378,6H31.084A3.525,3.525,0,0,1,34.66,9.54ZM23.15,18.973a.538.538,0,0,0-.545-.545h-1.43a.538.538,0,0,0-.545.545v.919a.538.538,0,0,0,.545.545h1.43a.538.538,0,0,0,.545-.545Zm2.826-6.3a3.137,3.137,0,0,0-1.022-2.452A4.092,4.092,0,0,0,22.129,9.3a4.353,4.353,0,0,0-2.69.783,2.6,2.6,0,0,0-.987,1.975.35.35,0,0,0,.341.375l1.6.034a.594.594,0,0,0,.579-.409,1.282,1.282,0,0,1,.306-.511,1.245,1.245,0,0,1,.851-.306,1.229,1.229,0,0,1,.953.375,1.376,1.376,0,0,1,.341,1.022,2.026,2.026,0,0,1-.306,1.09,2.457,2.457,0,0,1-.783.783,5.538,5.538,0,0,0-1.362,1.226,2.123,2.123,0,0,0-.341,1.158.376.376,0,0,0,.409.409h1.737a.4.4,0,0,0,.409-.341,1.628,1.628,0,0,1,.17-.647A1.732,1.732,0,0,1,24,15.636a4.159,4.159,0,0,0,1.43-1.226A2.993,2.993,0,0,0,25.977,12.673Z" fill="#fcfdff"/>
  </g>
</svg>
