<svg xmlns="http://www.w3.org/2000/svg" width="45.01" height="34" viewBox="0 0 45.01 34">
  <g id="How_does_it_work_" data-name="How does it work?" transform="translate(-2.45 -14.1)">
    <g id="Group_33004" data-name="Group 33004" transform="translate(2.45 14.1)">
      <path id="Path_39534" data-name="Path 39534" d="M47.128,44.691l-3.978-2.178a.807.807,0,0,0-.663,0,.657.657,0,0,0-.331.568v1.136H6.309V19.4H7.446a.722.722,0,0,0,.568-.331.662.662,0,0,0,0-.663L5.836,14.431a.657.657,0,0,0-.568-.331h0a.657.657,0,0,0-.568.331L2.521,18.409a.807.807,0,0,0,0,.663.722.722,0,0,0,.568.331H4.226V45.259A1.051,1.051,0,0,0,5.268,46.3H42.156v1.136a.722.722,0,0,0,.331.568.627.627,0,0,0,.663,0l3.978-2.178a.653.653,0,0,0,0-1.136Z" transform="translate(-2.45 -14.1)" fill="#fcfdff"/>
      <path id="Path_39535" data-name="Path 39535" d="M18.326,48.922h1.657v2.841H18.8a.224.224,0,0,0-.237.237v.758a.224.224,0,0,0,.237.237h3.6a.224.224,0,0,0,.237-.237V52a.224.224,0,0,0-.237-.237H21.215V48.922h1.657A.424.424,0,0,0,23.3,48.5V40.4a.424.424,0,0,0-.426-.426H21.215V37.131H22.4a.224.224,0,0,0,.237-.237v-.758A.224.224,0,0,0,22.4,35.9H18.8a.224.224,0,0,0-.237.237v.758a.224.224,0,0,0,.237.237h1.184v2.841H18.326a.424.424,0,0,0-.426.426v8.1C17.947,48.733,18.089,48.922,18.326,48.922Z" transform="translate(-10.584 -25.577)" fill="#fcfdff"/>
      <path id="Path_39536" data-name="Path 39536" d="M37.226,38.465h1.657v2.841H37.7a.224.224,0,0,0-.237.237V42.3a.224.224,0,0,0,.237.237h3.6a.224.224,0,0,0,.237-.237v-.758a.224.224,0,0,0-.237-.237H40.115V38.465h1.657a.424.424,0,0,0,.426-.426V31.6a.424.424,0,0,0-.426-.426H40.115V28.331H41.3a.224.224,0,0,0,.237-.237v-.758A.224.224,0,0,0,41.3,27.1H37.7a.224.224,0,0,0-.237.237v.758a.224.224,0,0,0,.237.237h1.184v2.841H37.226a.424.424,0,0,0-.426.426v6.487A.417.417,0,0,0,37.226,38.465Z" transform="translate(-20.534 -20.944)" fill="#fcfdff"/>
      <path id="Path_39537" data-name="Path 39537" d="M56.026,48.022h1.657v2.841H56.5a.224.224,0,0,0-.237.237v.758a.224.224,0,0,0,.237.237h3.6a.224.224,0,0,0,.237-.237V51.1a.224.224,0,0,0-.237-.237H58.915V48.022h1.657A.424.424,0,0,0,61,47.6V39.5a.424.424,0,0,0-.426-.426H58.915V36.231H60.1a.224.224,0,0,0,.237-.237v-.758A.224.224,0,0,0,60.1,35H56.5a.224.224,0,0,0-.237.237v.758a.224.224,0,0,0,.237.237h1.184v2.841H56.026a.424.424,0,0,0-.426.426v8.1C55.647,47.833,55.789,48.022,56.026,48.022Z" transform="translate(-30.431 -25.103)" fill="#fcfdff"/>
      <path id="Path_39538" data-name="Path 39538" d="M74.926,33.165h1.657v2.841H75.4a.224.224,0,0,0-.237.237V37a.224.224,0,0,0,.237.237H79A.224.224,0,0,0,79.235,37v-.758A.224.224,0,0,0,79,36.006H77.815V33.165h1.657a.424.424,0,0,0,.426-.426V26.3a.424.424,0,0,0-.426-.426H77.815V23.031H79a.224.224,0,0,0,.237-.237v-.758A.224.224,0,0,0,79,21.8H75.4a.224.224,0,0,0-.237.237v.805a.224.224,0,0,0,.237.237h1.184V25.92H74.926a.424.424,0,0,0-.426.426v6.44A.387.387,0,0,0,74.926,33.165Z" transform="translate(-40.382 -18.154)" fill="#fcfdff"/>
    </g>
  </g>
</svg>
