<svg xmlns="http://www.w3.org/2000/svg" width="51.938" height="58" viewBox="0 0 51.938 58">
  <g id="Insurance_blue" data-name="Insurance blue" transform="translate(-68 -26)">
    <g id="Group_32820" data-name="Group 32820" transform="translate(68 26)">
      <path id="Path_39432" data-name="Path 39432" d="M93.932,84c8.985-4.018,25.055-16.29,25.421-25.786l.584-15.924a11.794,11.794,0,0,1-8.327-12.71A50.26,50.26,0,0,0,93.932,26a49.836,49.836,0,0,0-17.6,3.579A11.869,11.869,0,0,1,68,42.29l.584,15.924C68.95,67.71,85.02,79.982,93.932,84Zm0-4.529C87.285,75.892,73.186,65.592,72.894,58.36L72.821,55H93.932Zm0-48.869h0A43.875,43.875,0,0,1,107.3,32.867a16.078,16.078,0,0,0,8.181,12.491L115.116,55H93.932Zm0,50.7c-7.6-3.8-22.572-14.9-22.864-23.156L70.557,43.97a14.37,14.37,0,0,0,8.327-12.71,46.089,46.089,0,0,1,15.048-2.776,46.52,46.52,0,0,1,15.121,2.776,14.243,14.243,0,0,0,8.327,12.71l-.511,14.171C116.5,66.4,101.6,77.5,93.932,81.3Z" transform="translate(-68 -26)" fill="#003da8" fill-rule="evenodd"/>
    </g>
  </g>
</svg>
