<svg id="Linked_In" data-name="Linked In" xmlns="http://www.w3.org/2000/svg" width="40" height="40" viewBox="0 0 40 40">
  <g id="Group_31731" data-name="Group 31731" transform="translate(0 0)">
    <g id="Group_31732" data-name="Group 31732" transform="translate(0 0)">
      <g id="Group_25981" data-name="Group 25981">
        <g id="Path_15" data-name="Path 15" transform="translate(0 0)" fill="none">
          <path d="M20,0A20,20,0,1,1,0,20,20,20,0,0,1,20,0Z" stroke="none"/>
          <path d="M 20.00000190734863 1.000003814697266 C 17.43457221984863 1.000003814697266 14.9464225769043 1.502220153808594 12.60465240478516 2.492702484130859 C 10.34226226806641 3.449611663818359 8.310222625732422 4.819721221923828 6.564971923828125 6.564971923828125 C 4.819721221923828 8.310222625732422 3.449611663818359 10.34226226806641 2.492702484130859 12.60465240478516 C 1.502220153808594 14.9464225769043 1.000003814697266 17.43457221984863 1.000003814697266 20.00000190734863 C 1.000003814697266 22.56543159484863 1.502220153808594 25.05358123779297 2.492702484130859 27.39535140991211 C 3.449611663818359 29.65774154663086 4.819721221923828 31.68978118896484 6.564971923828125 33.43503189086914 C 8.310222625732422 35.18028259277344 10.34226226806641 36.55039215087891 12.60465240478516 37.50730133056641 C 14.9464225769043 38.49778366088867 17.43457221984863 39 20.00000190734863 39 C 22.56543159484863 39 25.05358123779297 38.49778366088867 27.39535140991211 37.50730133056641 C 29.65774154663086 36.55039215087891 31.68978118896484 35.18028259277344 33.43503189086914 33.43503189086914 C 35.18028259277344 31.68978118896484 36.55039215087891 29.65774154663086 37.50730133056641 27.39535140991211 C 38.49778366088867 25.05358123779297 39 22.56543159484863 39 20.00000190734863 C 39 17.43457221984863 38.49778366088867 14.9464225769043 37.50730133056641 12.60465240478516 C 36.55039215087891 10.34226226806641 35.18028259277344 8.310222625732422 33.43503189086914 6.564971923828125 C 31.68978118896484 4.819721221923828 29.65774154663086 3.449611663818359 27.39535140991211 2.492702484130859 C 25.05358123779297 1.502220153808594 22.56543159484863 1.000003814697266 20.00000190734863 1.000003814697266 M 20.00000190734863 3.814697265625e-06 C 31.04570198059082 3.814697265625e-06 40 8.954301834106445 40 20.00000190734863 C 40 31.04570198059082 31.04570198059082 40 20.00000190734863 40 C 8.954301834106445 40 3.814697265625e-06 31.04570198059082 3.814697265625e-06 20.00000190734863 C 3.814697265625e-06 8.954301834106445 8.954301834106445 3.814697265625e-06 20.00000190734863 3.814697265625e-06 Z" stroke="none" fill="#fff"/>
        </g>
      </g>
      <g id="linked-in-logo" transform="translate(11 11.006)">
        <path id="LinkedIn_3_" d="M18.419,21.421v6.808H14.47V21.874c0-1.6-.569-2.684-2-2.684a2.162,2.162,0,0,0-2.025,1.443,2.73,2.73,0,0,0-.135.964v6.632H6.365s.053-10.76,0-11.874h3.946v1.683c-.005.014-.017.025-.022.041h.022v-.041a3.922,3.922,0,0,1,3.559-1.962C16.473,16.076,18.419,17.772,18.419,21.421ZM2.234,10.629a2.059,2.059,0,1,0-.051,4.106h.024a2.059,2.059,0,1,0,.027-4.106Zm-2,17.6H4.183V16.353H.236Z" transform="translate(0 -10.629)" fill="#fffcfc"/>
      </g>
    </g>
  </g>
</svg>
