<svg xmlns="http://www.w3.org/2000/svg" width="45.412" height="58.082" viewBox="0 0 45.412 58.082">
  <g id="Loans_White" data-name="Loans White" transform="translate(-233 -1587)">
    <g id="noun_loan_3328210" transform="translate(222 1584.035)">
      <g id="Layer_2" data-name="Layer 2">
        <path id="Path_39421" data-name="Path 39421" d="M28.79,9.27A3,3,0,0,1,30,9c8,.1,8.24-.23,9.34.32l.2.09a35,35,0,0,1,2.34-4.93A1,1,0,0,0,40.76,3c-2.64.56-3.29,1.08-4.4.67l-.68-.25a4.47,4.47,0,0,0-2.8-.07l-1.27.39c-1,.32-1.54-.12-4.37-.74a1,1,0,0,0-1,1.56A16.31,16.31,0,0,1,28.79,9.27Z" fill="#fcfdff"/>
        <path id="Path_39422" data-name="Path 39422" d="M33,22h-.29a2,2,0,0,0,0,4H33Z" fill="#fcfdff"/>
        <path id="Path_39423" data-name="Path 39423" d="M37.29,30a2,2,0,0,0-2-2H35v4h.29A2,2,0,0,0,37.29,30Z" fill="#fcfdff"/>
        <path id="Path_39424" data-name="Path 39424" d="M28.35,40.07A2.81,2.81,0,0,1,29,40a2.56,2.56,0,0,1,.39,0l13.07,1.74a5.23,5.23,0,0,1,4.52,5,5,5,0,0,0,3.41-5.41L47.66,20.86a10.51,10.51,0,0,0-5.72-8l-3.49-1.74A1,1,0,0,0,38,11H30a1,1,0,0,0-.45.11l-3.49,1.74a10.51,10.51,0,0,0-5.72,8C17.49,42.42,17.57,41.34,17.57,42h2.1ZM32.71,28a4,4,0,0,1,0-8H33v7.367L35,20h.29C37.5,20,26.5,17.791,26.5,20L37.29,24a2,2,0,0,0-2-2H35l2.29-2.966-8.94.511c2.209,0-5.849,8.246-5.849,10.455s15,4,12.789,4l.338-2L25.241,29.327,33,36.43V34h-.29a4,4,0,0,1-4-4h2a2,2,0,0,0,2,2H33V28Z" fill="#fcfdff"/>
        <path id="Path_39425" data-name="Path 39425" d="M12,57h5.84l11.84,4c.44.14-.49.17,17.49-3a.93.93,0,0,0,.49-.23l7.79-6.92a2.87,2.87,0,0,0-3.63-4.44l-6.23,4.66L34.16,53l-2.47-1.23.76-.76,9.65-.81A3.19,3.19,0,0,0,45,47a3.24,3.24,0,0,0-2.8-3.21L29.13,42a1,1,0,0,0-.35,0l-8.89,2H12a1,1,0,0,0-1,1V56A1,1,0,0,0,12,57Z" fill="#fcfdff"/>
      </g>
    </g>
    <path id="Path_39426" data-name="Path 39426" d="M1.789-15.806H7.233a2.524,2.524,0,0,0-.307-.782,1.869,1.869,0,0,0-.6-.6,3.049,3.049,0,0,0-.961-.382A6.08,6.08,0,0,0,4-17.706H1.777l.012-1.9H12.6v1.9H9.121a3.224,3.224,0,0,1,.55.846,3.587,3.587,0,0,1,.284,1.054h2.653v1.888H9.9a4.111,4.111,0,0,1-1.234,2.189A5.136,5.136,0,0,1,6.2-10.478v.046a4.527,4.527,0,0,1,.73.429,4.877,4.877,0,0,1,.649.568,7.307,7.307,0,0,1,.62.741q.307.417.654.938L11.982-3H8.9L6.26-7.27Q5.878-7.9,5.536-8.364a4.08,4.08,0,0,0-.73-.782,2.733,2.733,0,0,0-.857-.469,3.465,3.465,0,0,0-1.095-.156H1.789v-2.015h2.2a3.97,3.97,0,0,0,1.124-.156,3.44,3.44,0,0,0,.956-.44,2.983,2.983,0,0,0,.718-.672,2.466,2.466,0,0,0,.423-.863H1.789Z" transform="translate(249 1623)" fill="#003da8"/>
  </g>
</svg>
