<svg id="Mail" xmlns="http://www.w3.org/2000/svg" width="28" height="28" viewBox="0 0 28 28">
  <path id="Path_39417" data-name="Path 39417" d="M25.9,6a1.556,1.556,0,0,0-.319,0H3.8a1.556,1.556,0,0,0-.412.062L14.629,17.252Z" transform="translate(-0.753 -1.331)" fill="#003da8"/>
  <path id="Path_39418" data-name="Path 39418" d="M26.726,7.39,15.4,18.668a1.556,1.556,0,0,1-2.193,0L1.984,7.476a1.556,1.556,0,0,0-.054.389V23.42a1.556,1.556,0,0,0,1.556,1.556H25.263a1.556,1.556,0,0,0,1.556-1.556V7.864A1.555,1.555,0,0,0,26.726,7.39ZM4.551,23.42H3.47V22.308L9.124,16.7l1.1,1.1Zm20.7,0H24.159L18.489,17.8l1.1-1.1,5.654,5.608Z" transform="translate(-0.429 -1.642)" fill="#003da8"/>
  <rect id="Rectangle_1060" data-name="Rectangle 1060" width="28" height="28" fill="rgba(0,0,0,0)"/>
</svg>
