<svg xmlns="http://www.w3.org/2000/svg" width="59.55" height="33" viewBox="0 0 59.55 33">
  <path id="Motor_Insurance_Blue" data-name="Motor Insurance Blue" d="M59.671,37.226l-12.649-1.44L44.83,31.026a12.611,12.611,0,0,0-11.4-7.326H23.415a12.491,12.491,0,0,0-11.647,7.89l-.877,2.254L4,37.226a2.729,2.729,0,0,0-1.5,2.38V48.56a2.646,2.646,0,0,0,2.63,2.63H8.386a7.543,7.543,0,0,0,14.528,0H41.637a7.543,7.543,0,0,0,14.528,0H59.42a2.646,2.646,0,0,0,2.63-2.63v-8.7A2.8,2.8,0,0,0,59.671,37.226ZM15.587,52.692a3.632,3.632,0,1,1,3.632-3.632A3.634,3.634,0,0,1,15.587,52.692Zm9.455-16.97H16.4a.431.431,0,0,1-.376-.626l.626-1.565a7.35,7.35,0,0,1,6.763-4.571h1.628a.428.428,0,0,1,.438.438v5.886A.428.428,0,0,1,25.043,35.723Zm5.7-.438V29.4a.428.428,0,0,1,.438-.438h2.254a7.32,7.32,0,0,1,6.638,4.258l.877,1.879a.431.431,0,0,1-.376.626H31.179A.428.428,0,0,1,30.741,35.284ZM48.9,52.692a3.632,3.632,0,1,1,3.632-3.632A3.634,3.634,0,0,1,48.9,52.692Z" transform="translate(-2.5 -23.7)" fill="#003da8"/>
</svg>
