<svg id="Phone" xmlns="http://www.w3.org/2000/svg" width="28" height="28" viewBox="0 0 28 28">
  <path id="Path_39416" data-name="Path 39416" d="M12.074,16.312a15.843,15.843,0,0,0,5.756,3.726L20.762,17.7a.521.521,0,0,1,.591,0L26.8,21.212a1.556,1.556,0,0,1,.257,2.473L24.5,26.206a3.111,3.111,0,0,1-2.823.832,27.292,27.292,0,0,1-13.339-7,26.281,26.281,0,0,1-7.21-13.09,2.94,2.94,0,0,1,.856-2.761L4.631,1.636a1.556,1.556,0,0,1,2.427.249l3.624,5.374a.49.49,0,0,1,0,.583l-2.388,2.87a15.361,15.361,0,0,0,3.78,5.6Z" transform="translate(-0.236 -0.259)" fill="#003da8"/>
  <rect id="Rectangle_1059" data-name="Rectangle 1059" width="28" height="28" fill="rgba(0,0,0,0)"/>
</svg>
