<svg xmlns="http://www.w3.org/2000/svg" width="32.003" height="32" viewBox="0 0 32.003 32">
  <g id="Schedule" transform="translate(-4.793 -4.7)">
    <path id="Path_39475" data-name="Path 39475" d="M16.38,20.276a.543.543,0,0,1-.53.53H13.873a.543.543,0,0,1-.53-.53V18.3a.543.543,0,0,1,.53-.53h1.978a.543.543,0,0,1,.53.53ZM20.548,18.3a.543.543,0,0,0-.53-.53H18.04a.543.543,0,0,0-.53.53v1.978a.543.543,0,0,0,.53.53h1.978a.543.543,0,0,0,.53-.53Zm4.168,0a.543.543,0,0,0-.53-.53H22.173a.543.543,0,0,0-.53.53v1.978a.543.543,0,0,0,.53.53h1.978a.543.543,0,0,0,.53-.53V18.3ZM16.38,22.325a.543.543,0,0,0-.53-.53H13.873a.543.543,0,0,0-.53.53V24.3a.543.543,0,0,0,.53.53h1.978a.543.543,0,0,0,.53-.53Zm4.168,0a.543.543,0,0,0-.53-.53H18.04a.543.543,0,0,0-.53.53V24.3a.543.543,0,0,0,.53.53h1.978a.543.543,0,0,0,.53-.53Zm3.638-.53H22.173a.543.543,0,0,0-.53.53V24.3a.543.543,0,0,0,.53.53h1.978a.543.543,0,0,0,.53-.53V22.325A.491.491,0,0,0,24.186,21.795Zm-12.5,4.062H9.7a.543.543,0,0,0-.53.53v1.978a.543.543,0,0,0,.53.53h1.978a.543.543,0,0,0,.53-.53V26.387A.52.52,0,0,0,11.683,25.857Zm.53-3.532a.543.543,0,0,0-.53-.53H9.7a.543.543,0,0,0-.53.53V24.3a.543.543,0,0,0,.53.53h1.978a.543.543,0,0,0,.53-.53Zm7.806,3.532H18.04a.543.543,0,0,0-.53.53v1.978a.543.543,0,0,0,.53.53h1.978a.543.543,0,0,0,.53-.53V26.387A.543.543,0,0,0,20.018,25.857Zm-4.168,0H13.873a.543.543,0,0,0-.53.53v1.978a.543.543,0,0,0,.53.53h1.978a.543.543,0,0,0,.53-.53V26.387A.543.543,0,0,0,15.851,25.857Zm12.468-5.051a.543.543,0,0,0,.53-.53V18.3a.543.543,0,0,0-.53-.53H26.341a.543.543,0,0,0-.53.53v1.978a.543.543,0,0,0,.53.53ZM7.868,33.239H22.985a7.949,7.949,0,0,1-.389-2.4H7.868a.708.708,0,0,1-.706-.706V15.9h23.7v6.64a8.765,8.765,0,0,1,2.4.353V10.881a3.113,3.113,0,0,0-3.108-3.108h-3.5V5.83a1.116,1.116,0,0,0-1.13-1.13H23.762a1.116,1.116,0,0,0-1.13,1.13V7.773H15.427V5.83A1.116,1.116,0,0,0,14.3,4.7H12.53A1.116,1.116,0,0,0,11.4,5.83V7.773H7.9A3.113,3.113,0,0,0,4.8,10.881V30.1A3.047,3.047,0,0,0,7.868,33.239ZM36.8,30.731a5.969,5.969,0,1,1-5.969-5.969A5.984,5.984,0,0,1,36.8,30.731Zm-2.967-1.554a.641.641,0,0,0-.212-.494.725.725,0,0,0-1.024,0l-2.578,2.578-.989-.989a.725.725,0,0,0-1.024,0,.683.683,0,0,0,0,.989l1.483,1.483a.725.725,0,0,0,1.024,0l3.108-3.108A.486.486,0,0,0,33.828,29.177Z" fill="#fcfdff"/>
  </g>
</svg>
