<svg xmlns="http://www.w3.org/2000/svg" width="273.952" height="58.52" viewBox="0 0 273.952 58.52">
  <g id="Shopfins_Logo_white" data-name="Shopfins Logo white" transform="translate(-337 -242)">
    <g id="Group_33" data-name="Group 33" transform="translate(337 242)">
      <path id="Path_64" data-name="Path 64" d="M16.7-20.589a17.8,17.8,0,0,1-6.8-1.232A11.089,11.089,0,0,1,5.09-25.469a9.967,9.967,0,0,1-1.9-5.817h8.972A4.354,4.354,0,0,0,13.5-28.353a4.279,4.279,0,0,0,2.958,1.011,4.626,4.626,0,0,0,2.958-.863A2.885,2.885,0,0,0,20.5-30.6a2.83,2.83,0,0,0-.863-2.12,6.96,6.96,0,0,0-2.12-1.38,34.1,34.1,0,0,0-3.574-1.232A38.917,38.917,0,0,1,8.467-37.4a10.111,10.111,0,0,1-3.648-3.057,8.516,8.516,0,0,1-1.528-5.275,9.071,9.071,0,0,1,3.5-7.567,14.383,14.383,0,0,1,9.12-2.736A14.549,14.549,0,0,1,25.13-53.3a9.794,9.794,0,0,1,3.747,7.617h-9.12a3.567,3.567,0,0,0-1.232-2.637,4.342,4.342,0,0,0-2.909-.961,3.625,3.625,0,0,0-2.465.813,2.934,2.934,0,0,0-.937,2.342,2.9,2.9,0,0,0,1.578,2.613,25.859,25.859,0,0,0,4.93,2.021,45.594,45.594,0,0,1,5.447,2.169,10.371,10.371,0,0,1,3.623,3.007,8.05,8.05,0,0,1,1.528,5.078,9.964,9.964,0,0,1-1.5,5.374,10.531,10.531,0,0,1-4.363,3.845A14.936,14.936,0,0,1,16.7-20.589ZM51.406-48.738A9.787,9.787,0,0,1,59-45.608q2.859,3.13,2.859,8.6v16.071H53.477V-35.871a6.037,6.037,0,0,0-1.43-4.289A5.013,5.013,0,0,0,48.2-41.689a5.013,5.013,0,0,0-3.845,1.528,6.037,6.037,0,0,0-1.43,4.289v14.937H34.5V-57.415h8.43v12.67a9.01,9.01,0,0,1,3.5-2.909A11.187,11.187,0,0,1,51.406-48.738Zm28.84,28.2a15.184,15.184,0,0,1-7.272-1.725,12.634,12.634,0,0,1-5.078-4.93,14.731,14.731,0,0,1-1.849-7.493,14.613,14.613,0,0,1,1.873-7.469,12.711,12.711,0,0,1,5.127-4.954,15.329,15.329,0,0,1,7.3-1.725,15.329,15.329,0,0,1,7.3,1.725,12.711,12.711,0,0,1,5.127,4.954,14.613,14.613,0,0,1,1.873,7.469,14.463,14.463,0,0,1-1.9,7.469,12.834,12.834,0,0,1-5.176,4.955A15.475,15.475,0,0,1,80.246-20.54Zm0-7.3a5.492,5.492,0,0,0,4.116-1.775,7.051,7.051,0,0,0,1.7-5.078,7.182,7.182,0,0,0-1.652-5.078,5.337,5.337,0,0,0-4.067-1.775,5.35,5.35,0,0,0-4.092,1.75,7.235,7.235,0,0,0-1.627,5.1,7.324,7.324,0,0,0,1.6,5.078A5.186,5.186,0,0,0,80.246-27.836Zm27.311-16.712a9.151,9.151,0,0,1,3.4-3.106,10.442,10.442,0,0,1,5.078-1.183,11.39,11.39,0,0,1,6.162,1.725,11.951,11.951,0,0,1,4.363,4.93,16.44,16.44,0,0,1,1.6,7.444,16.6,16.6,0,0,1-1.6,7.469A12.093,12.093,0,0,1,122.2-22.29a11.271,11.271,0,0,1-6.162,1.75,10.479,10.479,0,0,1-5.053-1.183,9.264,9.264,0,0,1-3.426-3.057V-7.821h-8.43V-48.443h8.43Zm12.029,9.81a6.8,6.8,0,0,0-1.75-4.955,5.78,5.78,0,0,0-4.314-1.8,5.686,5.686,0,0,0-4.264,1.824,6.892,6.892,0,0,0-1.75,4.979,6.892,6.892,0,0,0,1.75,4.979,5.686,5.686,0,0,0,4.264,1.824,5.728,5.728,0,0,0,4.289-1.849A6.923,6.923,0,0,0,119.586-34.738Zm26.818-6.7h-4.535v20.508h-8.43V-41.442h-3.057v-7h3.057v-.789q0-5.078,2.909-7.715t8.529-2.637q.937,0,1.38.049v7.148a4.837,4.837,0,0,0-3.4.69,3.8,3.8,0,0,0-.986,3.007v.246H146.4Zm12.374-7v27.509h-8.43V-48.443Zm22.875-.3a9.983,9.983,0,0,1,7.715,3.13q2.884,3.13,2.884,8.6v16.071h-8.381V-35.871a6.037,6.037,0,0,0-1.43-4.289,5.013,5.013,0,0,0-3.845-1.528,5.013,5.013,0,0,0-3.845,1.528,6.037,6.037,0,0,0-1.43,4.289v14.937h-8.43V-48.443h8.43v3.648a8.894,8.894,0,0,1,3.451-2.884A10.971,10.971,0,0,1,181.653-48.738Zm27.657,28.2a15.811,15.811,0,0,1-6.409-1.232,10.945,10.945,0,0,1-4.437-3.377,8.882,8.882,0,0,1-1.824-4.807h8.331a3.2,3.2,0,0,0,1.331,2.317,4.709,4.709,0,0,0,2.909.887,4.151,4.151,0,0,0,2.44-.616,1.887,1.887,0,0,0,.863-1.6,1.849,1.849,0,0,0-1.232-1.75,24.9,24.9,0,0,0-3.993-1.257,37.493,37.493,0,0,1-4.93-1.454,8.517,8.517,0,0,1-3.4-2.416,6.583,6.583,0,0,1-1.43-4.462,7.576,7.576,0,0,1,1.306-4.314,8.8,8.8,0,0,1,3.845-3.081,14.724,14.724,0,0,1,6.039-1.134q5.176,0,8.159,2.564a9.975,9.975,0,0,1,3.426,6.8h-7.789a3.357,3.357,0,0,0-1.257-2.268,4.36,4.36,0,0,0-2.785-.838,3.851,3.851,0,0,0-2.268.567,1.81,1.81,0,0,0-.789,1.553,1.9,1.9,0,0,0,1.257,1.775,20.132,20.132,0,0,0,3.919,1.183,42.875,42.875,0,0,1,4.979,1.553,8.589,8.589,0,0,1,3.377,2.465,6.975,6.975,0,0,1,1.5,4.56,7.238,7.238,0,0,1-1.356,4.314,8.967,8.967,0,0,1-3.895,2.983A14.9,14.9,0,0,1,209.309-20.54Z" transform="translate(53.501 66.34)" fill="#fff"/>
      <g id="Group_32" data-name="Group 32">
        <g id="noun_Location_2885745">
          <g id="Group_22" data-name="Group 22">
            <path id="Path_56" data-name="Path 56" d="M22.039,0A22.184,22.184,0,0,1,44.274,22.039c0,13.263-13.653,26.525-22.234,35.692C13.458,48.564,0,35.3,0,22.039A22.142,22.142,0,0,1,22.039,0Zm0,9.362A12.677,12.677,0,1,1,9.362,22.039,12.652,12.652,0,0,1,22.039,9.362Z" fill="#fff" fill-rule="evenodd"/>
          </g>
        </g>
        <path id="Path_57" data-name="Path 57" d="M6.824-27.565a3.03,3.03,0,0,0-1.359-1.278,4.268,4.268,0,0,0-1.952-.441H1.191l.828-1.673h9.762l-.828,1.673H7.678a2.709,2.709,0,0,1,1.494,1.718h2.609l-.828,1.673H9.262Q8.848-22.365,4.3-22.365H4.062l5.569,5.7H6.716L1.686-21.978v-1.808H3.441a4.75,4.75,0,0,0,2.7-.612,2.186,2.186,0,0,0,.891-1.494H1.191l.828-1.673Z" transform="translate(15.933 47.364)" fill="#fff"/>
      </g>
    </g>
    <g id="Group_33-2" data-name="Group 33" transform="translate(540.061 247.918)">
      <path id="Path_64-2" data-name="Path 64" d="M233.864-51.756a5.109,5.109,0,0,1-3.623-1.306,4.233,4.233,0,0,1-1.4-3.229,4.288,4.288,0,0,1,1.4-3.278,5.109,5.109,0,0,1,3.623-1.306,5.042,5.042,0,0,1,3.574,1.306,4.288,4.288,0,0,1,1.4,3.278,4.233,4.233,0,0,1-1.4,3.229A5.042,5.042,0,0,1,233.864-51.756Z" transform="translate(-228.836 60.876)" fill="#eb4d44"/>
    </g>
  </g>
</svg>
