<svg xmlns="http://www.w3.org/2000/svg" width="53.945" height="50.95" viewBox="0 0 53.945 50.95">
  <g id="Support" transform="translate(-4.275 -6.494)">
    <path id="Path_39383" data-name="Path 39383" d="M12.96,34.461a4.271,4.271,0,0,0,.465.282L27.133,48.431,20.971,54.6,6.907,40.52Zm35.845-.514,6.783,6.79L41.524,54.815l-6.783-6.79ZM12.239,24.929a2.1,2.1,0,0,1,1.569.61l3.515,3.515a2.275,2.275,0,0,1-.152,3.243,2.268,2.268,0,0,1-3.241.152l-3.515-3.517a2.281,2.281,0,0,1,.152-3.248A2.507,2.507,0,0,1,12.239,24.929Zm4.931-4.935a2.087,2.087,0,0,1,1.57.61L22.233,24.1a.133.133,0,0,0,.021.025,2.411,2.411,0,0,1-3.393,3.4l-3.472-3.475A.4.4,0,0,1,15.346,24a2.273,2.273,0,0,1,.152-3.242A2.519,2.519,0,0,1,17.17,19.994ZM22.1,15.059a2.1,2.1,0,0,1,1.569.607l3.514,3.521a2.41,2.41,0,0,1-3.393,3.393L20.319,19.1l-.042-.042a2.282,2.282,0,0,1,.152-3.246A2.5,2.5,0,0,1,22.1,15.059Zm4.931-4.939a2.079,2.079,0,0,1,1.569.612l3.515,3.517a2.275,2.275,0,0,1-.152,3.246,2.267,2.267,0,0,1-3.239.152L25.25,14.17l-.042-.042a2.283,2.283,0,0,1,.155-3.248A2.5,2.5,0,0,1,27.033,10.12Zm8.6-3.624A4.192,4.192,0,0,0,32.47,7.734a1.087,1.087,0,1,0,1.537,1.537,2.123,2.123,0,0,1,.565-.4,2.372,2.372,0,0,1,2.677.552,2.276,2.276,0,0,1,.152,3.244,1.112,1.112,0,0,0-.248.38,4.182,4.182,0,0,0-.689.558A1.089,1.089,0,1,0,38,15.149a2.27,2.27,0,0,1,3.242.15,2.278,2.278,0,0,1,.152,3.246,1.107,1.107,0,0,0-.248.379,4.225,4.225,0,0,0-.689.559,1.089,1.089,0,1,0,1.537,1.541,2.41,2.41,0,0,1,3.393,3.395,1.091,1.091,0,0,0-.32.758,4.147,4.147,0,0,0-1.324.89,1.089,1.089,0,1,0,1.537,1.541A2.408,2.408,0,0,1,48.674,31L32.646,47.041l-3.552.262L16.774,35.01a4.746,4.746,0,0,0,1.937-1.171,4.422,4.422,0,0,0,1.138-3.8,4.181,4.181,0,0,0,4.933-4.932,4.178,4.178,0,0,0,4.932-4.935,4.414,4.414,0,0,0,3.793-1.142,4.487,4.487,0,0,0,.149-6.321l-3.47-3.48-.042-.04c-.031-.028-.058-.056-.093-.084A4.25,4.25,0,0,0,27,7.961a4.71,4.71,0,0,0-4.546,4.946c-.13-.007-.259-.011-.387-.007a4.71,4.71,0,0,0-4.544,4.938c-.128-.007-.259-.011-.387-.007a4.719,4.719,0,0,0-4.546,4.942c-.13-.007-.259-.009-.389-.007a4.692,4.692,0,0,0-3.17,1.387A4.49,4.49,0,0,0,8.813,30.4a.591.591,0,0,0,.066.069l2.5,2.5L4.594,39.755a1.087,1.087,0,0,0,0,1.537L20.2,56.908a1.083,1.083,0,0,0,1.539,0l7.421-7.421,3.735-.279a1.255,1.255,0,0,0,.176.225l7.681,7.693a1.091,1.091,0,0,0,1.541,0L57.9,41.5a1.092,1.092,0,0,0,0-1.541L50.337,32.4a4.492,4.492,0,0,0-.277-6.179,4.732,4.732,0,0,0-2.382-1.291,4.578,4.578,0,0,0-.9-5.293,4.714,4.714,0,0,0-2.787-1.353,4.647,4.647,0,0,0-1.206-4.525A4.72,4.72,0,0,0,40,12.407a4.638,4.638,0,0,0-1.206-4.521,4.72,4.72,0,0,0-2.476-1.314A4.127,4.127,0,0,0,35.635,6.5Z" transform="translate(0 0)" fill="#003da8"/>
  </g>
</svg>
