<svg xmlns="http://www.w3.org/2000/svg" width="19.566" height="30" viewBox="0 0 19.566 30">
  <g id="what" transform="translate(-4.956 -1.2)">
    <path id="Path_39476" data-name="Path 39476" d="M16.969,21.659h0a2.372,2.372,0,0,1-4.745,0h0c-.013-.683-.019-1.094-.019-1.246a8.231,8.231,0,0,1,.765-3.784,11.565,11.565,0,0,1,3.042-3.34,22.235,22.235,0,0,0,2.733-2.429,3.244,3.244,0,0,0,.69-2.006,3.326,3.326,0,0,0-1.222-2.588,4.751,4.751,0,0,0-3.282-1.082A5,5,0,0,0,11.6,6.317a6.06,6.06,0,0,0-1.84,3.461h0a2.411,2.411,0,0,1-4.784-.607h0A7.963,7.963,0,0,1,7.809,3.522a10.03,10.03,0,0,1,6.9-2.322,10.427,10.427,0,0,1,7.154,2.347,7.087,7.087,0,0,1,2.657,5.46,6,6,0,0,1-.974,3.264,21.5,21.5,0,0,1-4.17,4.195,7.932,7.932,0,0,0-2.05,2.207,7.412,7.412,0,0,0-.36,2.986ZM14.6,25.805a2.7,2.7,0,1,1-2.7,2.7A2.7,2.7,0,0,1,14.6,25.805Z" transform="translate(0 0)" fill="#fcfdff" fill-rule="evenodd"/>
  </g>
</svg>
