<svg xmlns="http://www.w3.org/2000/svg" width="1106.446" height="521.15" viewBox="0 0 1106.446 521.15"><g id="About_Us_theme_Page" data-name="About Us theme Page" transform="translate(-90 3333.325)"><g id="g12" transform="translate(90 -3333.325)"><path id="path14" d="M1106.446-3333.325h0z" transform="translate(0 3333.325)" fill="#fff"/><path id="path20" d="M3323.749-1536.383c-13.734 27.88-30.953 104.061-35.647 108.235s-31.832 20.35-36.527 28.178-2.611 5.217-.523 5.74 120.014 1.043 120.014 1.043-13.565-80.878-15.131-81.4-32.187-61.8-32.187-61.8" transform="translate(-2574.757 1909.175)" fill="#003da8"/><path id="path22" d="M3516.192-1393.565c21.658.152 44.512.271 57.095.332l-17.227-103.019c-9.187-17.811-20.342-40.131-20.342-40.131-1.728 3.513-3.515 7.8-5.327 12.605-1.787 77.374 9.358 99.063.988 112.849-6.533 10.757-12.495 15.57-15.186 17.363" transform="translate(-2786.725 1909.175)" fill="#073584"/><path id="path24" d="M3681.97-1698.583c19.584 18.079 63.184 35.224 63.184 35.224s6.625 61.2 2.1 95.857-2.011 41.685-2.011 41.685l-94.145.8s-7.817-17.542-29.9-69.606c-14.06-33.146-11.551-70.309-11.551-70.309l54.744-24.61 17.579-9.04" transform="translate(-2860.656 2037.725)" fill="#003da8"/><path id="path26" d="M3789.088-1384.607h89.9s-2.509-7.031 2.011-41.685c3.72-28.535-.113-75.07-1.582-90.612l-8.177-3.5c-20.524 5.914-32.352 36.529-35.832 66.447-2.326 20.018-35.491 39.724-57.186 50.573 7.128 13.587 10.87 18.782 10.87 18.782" transform="translate(-2994.392 1896.516)" fill="#073584"/><path id="path28" d="M3885.964-1629.233s.844 25.847 5.251 25.57 30.029-32.77 30.029-32.77l-4.356-2.083-30.923 9.283" transform="translate(-3079.785 1990.12)" fill="#073584"/><path id="path30" d="M3797.354-1606.641s-5.569 23.778-8.332 23.224-6.5-24.726-6.5-24.726l14.829 1.5" transform="translate(-2997.806 1966.048)" fill="#073584"/><path id="path32" d="M3807.982-1615.183l7.664.83 2.949 9.128s-6.741 7.889-6.879 11.067 1.485 15.073 1.574 25.86-3.875 53.732-2.077 80.038l1.8 26.306-15.4.6s-.83-28.939.0-59.92 9.648-72.884 9.648-72.884l-3.48-10.652 4.2-10.373" transform="translate(-3009.468 1971.627)" fill="#f37168"/><path id="path34" d="M3707.87-2001.382c-10.835 24.134 2.169 46.493 1.776 45.55s16.4-40.748 16.4-40.748l-18.179-4.8" transform="translate(-2935.213 2277.705)" fill="#2e5b9a"/><path id="path36" d="M3834.109-1915.355l13.742 50.235a4.552 4.552.0 0 1-.869 4.069c-3.222 3.969-7.814 12.138-17.073 14.757a22.912 22.912.0 0 1-5.814.652 3.923 3.923.0 0 1-3.872-3.175l-9.205-47.646 23.091-18.892" transform="translate(-3020.388 2209.526)" fill="#f09959"/><path id="path38" d="M3831.484-1895.116l-5.023 2.058-15.443 12.635 5.924 30.2 2.365 12.041c14.058-8.766 19.213-23.067 12.177-56.938" transform="translate(-3020.388 2193.486)" fill="#e38540"/><path id="path40" d="M3730.926-1948.76c.01 16.8-10.119 30.04-22.625 29.564s-20.178-9.933-22.666-31.282c-1.95-16.749 2.888-36.239 15.394-35.763s29.885 20.679 29.9 37.481" transform="translate(-2920.686 2265.713)" fill="#f09959"/><path id="path42" d="M3906.381-1530.4c18.19 4.108 21.57 41.052 27.481 80.016.683 4.484 4.177 42.441 4.177 42.441a11.624 11.624.0 0 1-6.611 10.436c-5.944 2.974-8.348 5.22-42.789 5.566-33.077.335-75.722-1.043-75.722-1.043s-.379-12.306 3.015-18.323c5.1-9.042 57.4-22.032 62.27-22.727.694-9.742-4.8-44.985 2.783-68.882 5.219-16.439 10.829-25.047 17.855-27.3a14.122 14.122.0 0 1 7.541-.185" transform="translate(-3021.882 1904.768)" fill="#003da8"/><path id="path44" d="M3903.111-1359.057c16.306.246 38.684.478 57.021.293 34.441-.346 36.845-2.592 42.789-5.565 6.957-3.48 7.305-9.394 7.305-9.394s-3.516-40.388-4.174-44.875c-3.826-26.093-7.961-55.947-17.584-70.359a196.664 196.664.0 0 1 10.663 58.437c.084 4.841-.365 11.466-1.775 16.1-1.566 5.131-5.566 8.348-11.828 6.608-12.524-3.477-28.178 3.828-28.178 3.828s11.828-4.174 22.959-.349 34.093 29.221 9.045 38.615c-7.665 2.874-53.575 5.22-86.242 6.664" transform="translate(-3093.375 1871.588)" fill="#073584"/><path id="path46" d="M3823.56-979.272s4.638-7.886 14.146-7.886 8.816 15.537 7.422 20.641-6.957 5.333-6.957 5.333l-19.153-.484 4.542-17.6" transform="translate(-3026.728 1473.892)" fill="#96cfe0"/><path id="path48" d="M2933.313-891.39h159.792a8.008 8.008.0 0 0-8.01-8.008H2933.313v8.008" transform="translate(-2324.77 1404.339)" fill="#75a1de"/><path id="path50" d="M3624.935-993.511c-19.263-8.86-24.707-6.608-29.086-8.3-10.815-4.182-13.825-1.646-22.666 17.385-1.761 3.792 2.418 4.4 6.578 4.752s9.933-7.3 11.629-8.085 6.127-.874 6.127-.874-1.386-.119-3.823 3.864-5.115 5.383-1.878 5.659 4.152-5 10.06-3.333 4.7 7.294 19.767 6.807c14.292-.462 24.972.968 25.5-8.063.5-8.572 1.809-12.766-6.174-14.959-6.137-1.687-16.032 5.148-16.032 5.148" transform="translate(-2831.566 1486.875)" fill="#f09959"/><path id="path52" d="M3825.259-973.541c13.413-.368 8.1 15.853 6.6 17.12s7.358 1.118 7.358 1.118a16.11 16.11.0 0 0 1.878-14.207c-2.817-7.922-9.72-8.86-9.72-8.86l-6.168 2.73.055 2.1" transform="translate(-3031.63 1466.928)" fill="#a86b48"/><path id="path54" d="M3832.364-983.692c.108 2.063-3.173 3.911-7.324 4.124s-7.6-1.281-7.712-3.344 3.173-3.911 7.325-4.124 7.6 1.281 7.712 3.344" transform="translate(-3025.386 1473.812)" fill="#2e5b9a"/><path id="path56" d="M3832.76-986.53c.1 1.842-2.832 3.494-6.542 3.687s-6.8-1.148-6.89-2.99 2.832-3.494 6.542-3.687 6.8 1.148 6.89 2.99" transform="translate(-3026.972 1475.778)" fill="#3e6bab"/><path id="path58" d="M3835.535-985.883c.069 1.328-2.039 2.515-4.711 2.653s-4.89-.824-4.96-2.149 2.041-2.517 4.711-2.656 4.893.827 4.96 2.152" transform="translate(-3032.152 1474.597)" fill="#f0ceb4"/><path id="path60" d="M3275.938-961.9c9.905-5.5 22.01-3.668 26.41 1.834s5.135 9.17-4.769 9.17-29.71.733-33.01.368 11.368-11.372 11.368-11.372" transform="translate(-2586.921 1456.508)" fill="#f09959"/><path id="path62" d="M3383.272-960.717c10.636-2.567 17.9 3.624 26.776 9.537 7.7 5.134 9.25 10.127.733 5.867-12.473-6.235-19.809-6.968-19.809-6.968l-7.7-8.437" transform="translate(-2681.381 1453.409)" fill="#f09959"/><path id="path64" d="M3219.235-940.7c-5.372.0-10.06-1.715-13.853-1.4s-15.8 12.638-13.9 13.587a4.693 4.693.0 0 0 .442.188 6.47 6.47.0 0 0 7.676-2.691c1.7-2.727 4.465-5.9 7.682-4.766a34.128 34.128.0 0 0 11.009 1.715l.949-6.636" transform="translate(-2529.217 1438.208)" fill="#f09959"/><path id="path66" d="M3323.292-964.03c-5.5-2.2 3.3-20.541 6.237-20.541s13.938 8.8 13.938 8.8-2.589 1.461-11.372-1.466c-2.2-.733-4.036 11.737-6.6 13.206s-2.2.0-2.2.0" transform="translate(-2632.441 1471.841)" fill="#f7a96f"/><path id="path68" d="M3791.362-1668.063l2.578 13.748-7.535 16.309-8.187-17.288 13.145-12.768" transform="translate(-2994.392 2013.537)" fill="#003da8"/><path id="path70" d="M3642.687-1998.073c3.164 19.952 10.552 22.062 15.783 23.882s24.8-6.4 26.882-11.864c5.336-13.98-3.273-24.505-1.527-24.646s4.213 4.465 9.853 9.989c.526.515 4.152 3.9 4.061 2.567-1.213-18.165 7.028-25.4 1.5-42.977-4.078-12.962-12.3-10.354-12.3-10.354s-7.48-10.094-24.148-5.709c-11.17 2.935-20.45 9.214-31.569 14.376s19.254 26.914 32.612 14.447 9.814 10.213 12.508 11.422 1.19.008 4.3 10.7-9.416 20.364-13.211 22.029c-12.129 5.328-14.635 3.627-18.294-.636-3.176-3.7-6.448-13.227-6.448-13.227" transform="translate(-2875.989 2322.807)" fill="#001e48"/><path id="path72" d="M3899.792-1884.338c-.531 5.275-3.488 9.164-6.609 8.691s-3.955-4.528-4.686-10.412c-.658-5.3 3.488-9.164 6.605-8.688s5.218 5.137 4.689 10.409" transform="translate(-3081.738 2193.225)" fill="#f09959"/><path id="path74" d="M3902.723-1693.2l13.665 12.727s-26.289 24.757-28.565 24.48-6.138-21.023-6.138-21.023l21.039-16.185" transform="translate(-3076.393 2033.456)" fill="#003da8"/><path id="path76" d="M3835.948-1616.67c-2.52 1.184-1.709 4.783-2.78 6.033s-1.707 1.588-2.566-.155-.722-5.679-1.392-5.878-5.739 15.659-5.739 15.659 3.726-10.14 4.575-9.034.174 2.135 3.258 2.321a22.785 22.785.0 0 0 7.01-1.118l-2.365-7.828" transform="translate(-3030.256 1972.807)" fill="#073584"/><path id="path78" d="M2792.667-1180.011h85.351l-36.244-79.739a6.52 6.52.0 0 0-5.934-3.82h-77.2a2.545 2.545.0 0 0-2.315 3.6l36.344 79.96" transform="translate(-2184.315 1692.96)" fill="#a8ceff"/><path id="path80" d="M2718.638-1263.57h78.771a6.516 6.516.0 0 1 5.933 3.82l36.244 79.739h-86.92l-36.344-79.96a2.545 2.545.0 0 1 2.315-3.6" transform="translate(-2152.614 1692.96)" fill="#75a1de"/><path id="path82" d="M2917.748-1093.771c2.988 6.191 7.836 10.038 10.827 8.594s3-7.634.011-13.825-7.836-10.038-10.829-8.594-3 7.632-.009 13.825" transform="translate(-2310.66 1569.585)" fill="#6695d6"/><path id="path84" d="M1426.679-1908.347c-1.328.0-2.633-.067-3.914-.13-1.06-.055-2.155-.11-3.212-.125a.673.673.0 0 1-.664-.683.673.673.0 0 1 .672-.664c1.09.014 2.2.069 3.272.125 8.014.406 16.3.827 24.375-14.7 3.5-6.741 7.319-19.844 6.536-34.6-.642-12.079-4.736-29.265-20.6-42.526a.676.676.0 0 1-.083-.952.671.671.0 0 1 .949-.083c16.234 13.574 20.425 31.144 21.081 43.492.8 15.02-3.1 28.4-6.688 35.287-7.125 13.7-14.708 15.554-21.725 15.554" transform="translate(-1124.528 2278.86)" fill="#303c60"/><path id="path86" d="M1438.253-1878.626c-.312.0-.625-.006-.941-.022a.674.674.0 0 1-.639-.706.671.671.0 0 1 .705-.642c.291.014.581.022.871.022 8.362.0 16.085-5.922 21.3-16.386 8.578-17.206 9.411-45.431-5.942-63.853a.673.673.0 0 1 .086-.952.673.673.0 0 1 .949.089c15.72 18.862 14.882 47.732 6.113 65.319-5.455 10.94-13.615 17.13-22.505 17.13" transform="translate(-1138.622 2245.955)" fill="#303c60"/><path id="path88" d="M1210.462-2014.239c24.2-18.782 46.928-8.826 55.068 16.6 7.6 23.747-2.141 74.771-38.242 65.88-37.346-9.2-40.458-20.633-40.174-37.249a58.974 58.974.0 0 1 23.347-45.229" transform="translate(-940.824 2295.608)" fill="#303c60"/><path id="path90" d="M1098.5-1614.063l-34.591 12.907s9.682 70.259 10.511 97.091-12.724 50.108-12.724 50.108h90.451s12.448-73.067 9.958-98.792-19.64-52.376-20.469-53.018-21.576-5.347-21.576-5.347l-21.56-2.949" transform="translate(-841.437 1970.74)" fill="#a2dff2"/><path id="path92" d="M1464.726-1197.184s3.485 32.64 4.924 34.3 54.548 27.658 54.548 27.658l-77.175 5.259 17.7-67.217" transform="translate(-1146.825 1640.346)" fill="#df3d34"/><path id="path94" d="M1447.023-1574.076c8.575.185 10.9 14.207 12.921 24.624s-12.921-24.624-12.921-24.624" transform="translate(-1146.825 1939.048)" fill="#d54a41"/><path id="path96" d="M1135.429-1550.471c-4.7-16.873-29.967-63.859-29.967-63.859l-33.1 12.962s7.588 55.065 9.9 86.314l12.573 60.885h40.589s4.7-79.429.0-96.3" transform="translate(-849.891 1970.951)" fill="#eb4d44"/><path id="path98" d="M1151.193-1017.951l37.308-8.567-3.045 31.81z" transform="translate(-912.368 1505.086)" fill="#df3d34"/><path id="path100" d="M1098.917-1418.041c-6.085-8.237-12.038-17.3-6.241-36.236s6.362-25.725 4.331-42.875-11.247-44.534-29.226-45.364c0 0-.593 6-1.552 15.57 2.92 22.613 7.623 61.245 8.19 79.584.83 26.831-12.724 50.108-12.724 50.108l73.578 1.618s-30.271-14.165-36.356-22.406" transform="translate(-841.437 1914.036)" fill="#df3d34"/><path id="path102" d="M1411.116-1535.482c-2.489-25.725-19.639-52.376-20.469-53.018-.512-.4-8.63-2.346-14.757-3.776 1.8 4.252 20.8 49.539 20.013 68.193-.83 19.582.025 87.393.025 87.393h5.231s12.447-73.067 9.958-98.792" transform="translate(-1090.449 1953.473)" fill="#eb4d44"/><path id="path152" d="M1379.3-854.636H507.819a4.234 4.234.0 0 1-4.236-4.235v-.266a4.236 4.236.0 0 1 4.236-4.235H1379.3a4.237 4.237.0 0 1 4.235 4.235v.266a4.235 4.235.0 0 1-4.235 4.235" transform="translate(-399.11 1375.786)" fill="#2e5b9a"/><path id="path154" d="M2799.447-2861.191h-94.452a4.414 4.414.0 0 1-4.4-4.4v-33.744a4.414 4.414.0 0 1 4.4-4.4h94.452a4.415 4.415.0 0 1 4.4 4.4v33.744a4.414 4.414.0 0 1-4.4 4.4" transform="translate(-2140.33 2992.861)" fill="#9ec8ff"/><path id="path156" d="M2760.713-2743.243v23.473l27.05-27.05s-26.5 3.577-27.05 3.577" transform="translate(-2187.978 2868.496)" fill="#9ec8ff"/><path id="path158" d="M2815.179-2849.295h-85.108a3.742 3.742.0 0 1-3.731-3.731v-26.649a3.742 3.742.0 0 1 3.731-3.732h85.108a3.743 3.743.0 0 1 3.732 3.732v26.649a3.743 3.743.0 0 1-3.732 3.731" transform="translate(-2160.737 2976.746)" fill="#fff"/><path id="path160" d="M2802.59-2856.752h-41.815a1.838 1.838.0 0 1-1.834-1.834 1.838 1.838.0 0 1 1.834-1.834h41.815a1.838 1.838.0 0 1 1.834 1.834 1.838 1.838.0 0 1-1.834 1.834" transform="translate(-2186.573 2958.528)" fill="#9ec8ff"/><path id="path162" d="M2837.517-2816.813H2759.96a1.023 1.023.0 0 1-1.02-1.018v-.022a1.023 1.023.0 0 1 1.02-1.02h77.557a1.023 1.023.0 0 1 1.018 1.02v.022a1.022 1.022.0 0 1-1.018 1.018" transform="translate(-2186.573 2925.601)" fill="#9ec8ff"/><path id="path164" d="M2837.517-2797.573H2759.96a1.023 1.023.0 0 1-1.02-1.018v-.022a1.023 1.023.0 0 1 1.02-1.021h77.557a1.023 1.023.0 0 1 1.018 1.021v.022a1.022 1.022.0 0 1-1.018 1.018" transform="translate(-2186.573 2910.353)" fill="#9ec8ff"/><path id="path166" d="M3047.012-2741.465h-2.542a.97.97.0 0 1-.971-.971v-2.091a.973.973.0 0 1 .971-.974h2.542a.975.975.0 0 1 .971.974v2.091a.972.972.0 0 1-.971.971" transform="translate(-2412.097 2867.45)" fill="#9ec8ff"/><path id="path168" d="M3086.3-2741.465h-2.539a.97.97.0 0 1-.971-.971v-2.091a.973.973.0 0 1 .971-.974h2.539a.973.973.0 0 1 .971.974v2.091a.97.97.0 0 1-.971.971" transform="translate(-2443.24 2867.45)" fill="#9ec8ff"/><path id="path170" d="M3125.6-2741.465h-2.54a.97.97.0 0 1-.971-.971v-2.091a.973.973.0 0 1 .971-.974h2.54a.973.973.0 0 1 .971.974v2.091a.97.97.0 0 1-.971.971" transform="translate(-2474.38 2867.45)" fill="#9ec8ff"/><path id="path172" d="M1518.03-899.97H1358.237a10.253 10.253.0 0 1 10.254-10.254H1518.03v10.254" transform="translate(-1076.458 1412.919)" fill="#a8ceff"/><path id="path174" d="M1803.331-1180.011h-85.349l36.245-79.739a6.516 6.516.0 0 1 5.933-3.82h77.2a2.546 2.546.0 0 1 2.318 3.6l-36.347 79.96" transform="translate(-1361.572 1692.96)" fill="#a8ceff"/><path id="path176" d="M1863.07-1263.57H1792.6a6.516 6.516.0 0 0-5.933 3.82l-36.245 79.739h78.618l36.347-79.96a2.546 2.546.0 0 0-2.318-3.6" transform="translate(-1387.281 1692.96)" fill="#75a1de"/><path id="path178" d="M2048.632-1103.558c-2.988 6.191-7.837 10.041-10.83 8.6s-3-7.635-.008-13.825 7.837-10.041 10.829-8.6 3 7.635.009 13.825" transform="translate(-1613.262 1577.341)" fill="#6695d6"/><path id="path180" d="M1248.665-1857.3s-7.251 37.019-15.266 43.505 18.444 37.771 27.6 29.755.636-25.556.636-25.556-4.959-3.054 3.436-22.516-14.207-33.965-14.207-33.965l-2.2 8.777" transform="translate(-976.337 2170.47)" fill="#f09959"/><path id="path182" d="M1304.609-1866.076l-2.2 8.777s-1.009 5.151-2.69 11.944c3.133 14.619 8.99 24.123 14.229 30.167.152-3.369 1.311-8.672 4.871-16.923 8.4-19.465-14.207-33.965-14.207-33.965" transform="translate(-1030.078 2170.47)" fill="#e38540"/><path id="path184" d="M1366.089-1905.607c-4.871 13.438-16.78 24.225-24.342 21.736-12.351-4.066-21.343-13.72-19.219-35.063 2.5-25.136 21.844-28.018 33.2-24.807s15.753 23.263 10.359 38.134" transform="translate(-1047.911 2232.869)" fill="#f09959"/><path id="path186" d="M1187.273-1614.33l-11.684 4.575 18.417 23.6-5.255 9.4s18.967 14.24 24.731 41.832a246.706 246.706.0 0 1 5.136 51.1s1.416-55.958-1.377-66.655c-5.416-20.746-29.967-63.859-29.967-63.859" transform="translate(-931.703 1970.951)" fill="#df3d34"/><path id="path188" d="M1375.89-1592.276s14.577 37.431 16.89 47.964 2.782 62.008 2.782 62.008 6.7-44.88 4.766-58.157-4.7-25.274-4.7-25.274l-8.851-6.536s-1.673-17.8-2.614-18.03-8.271-1.975-8.271-1.975" transform="translate(-1090.449 1953.472)" fill="#df3d34"/><path id="path190" d="M1290.786-969.2c28.358-8.594 24.92-12.89 35.232-8.022s23.235 8.177 17.189 9.74-15.183-3.438-15.183-3.438 1.433 7.734-3.723 10.027-28.051 3.126-40.809-.443 7.295-7.864 7.295-7.864" transform="translate(-1013.853 1467.639)" fill="#f09959"/><path id="path192" d="M1302.328-937.185h5.644l-2.821 16.035s-11.121-1.651-10.292-2.758 7.469-13.277 7.469-13.277" transform="translate(-1026.194 1434.286)" fill="#a2dff2"/><path id="path194" d="M949.184-1551.849c-11.064 19.363-14.575 29.924-23.593 66.16s-12.643 52.725-2.685 57.485c8.24 3.942 68.237 21.935 75.515 19.72 3.319.188 8.414-16.953 8.414-16.953l-54.608-24.342s15.8-37.73 18.533-62.514-9.4-39.555-15.49-39.555h-6.085" transform="translate(-726.713 1921.433)" fill="#eb4d44"/><path id="path196" d="M1296.464-1842.667c-2.672 8.387-1.524 10.1-5.224 10.882s-7.076-2.888-8.17-8.041 1.019-9.972 4.718-10.757 10.275 2.9 8.676 7.917" transform="translate(-1016.657 2158.276)" fill="#f09959"/><path id="path198" d="M1317.377-1967.595c-14.472 25.725-43.226 21.946-60.7 13.095-14.244-7.214 40.639-34.548 40.639-34.548l20.06 21.454" transform="translate(-994.099 2267.931)" fill="#303c60"/><path id="path200" d="M1176.075-2027.151c-5.365-16.182-27.347-12.356-37.308 9.172s5.281 35.927 14.518 30.651 22.791-39.824 22.791-39.824" transform="translate(-899.941 2306.033)" fill="#303c60"/><path id="path212" d="M2234.875-2460.829h251.47v-139.515h-251.47z" transform="translate(-1771.229 2752.408)" fill="#9ec8ff"/><path id="path214" d="M2248.208-2458.61H2489.72v-127.068H2248.208z" transform="translate(-1781.797 2740.784)" fill="#fff"/><path id="path216" d="M2493.553-2463.834h-38.175a.555.555.0 0 0 .553-.553v-.553H2493v-18.018h.553a.555.555.0 0 0 .553-.553v19.125a.555.555.0 0 1-.553.553m-38.175.0H2417.2a.553.553.0 0 0 .553-.553v-.553h37.069v.553a.555.555.0 0 0 .553.553m-38.175.0h-38.172a.555.555.0 0 0 .553-.553v-.553h37.066v.553a.555.555.0 0 0 .553.553m-38.172.0h-38.175a.553.553.0 0 0 .553-.553v-.553h37.069v.553a.553.553.0 0 0 .553.553m-38.175.0h-38.173a.555.555.0 0 0 .554-.553v-.553H2340.3v.553a.555.555.0 0 0 .553.553m-38.173.0h-38.175a.555.555.0 0 1-.553-.553v-114.747a.553.553.0 0 1 .553-.553h229.045a.553.553.0 0 1 .553.553v19.125a.555.555.0 0 0-.553-.556H2493v-18.016h-37.069v-.554a.553.553.0 0 0-.553-.553.553.553.0 0 0-.553.553v.554h-37.069v-.554a.551.551.0 0 0-.553-.553.553.553.0 0 0-.553.553v.554h-37.066v-.554a.553.553.0 0 0-.553-.553.551.551.0 0 0-.553.553v.554h-37.069v-.554a.551.551.0 0 0-.553-.553.553.553.0 0 0-.553.553v.554h-37.066v-.554a.553.553.0 0 0-.554-.553.551.551.0 0 0-.553.553v.554h-37.069v18.016h-.553a.555.555.0 0 0-.553.556.555.555.0 0 0 .553.554h.553v18.015h-.553a.555.555.0 0 0-.553.556.555.555.0 0 0 .553.553h.553v18.016h-.553a.555.555.0 0 0-.553.553.553.553.0 0 0 .553.553h.553v18.018h-.553a.555.555.0 0 0-.553.554.553.553.0 0 0 .553.553h.553v18.019h-.553a.555.555.0 0 0-.553.553.555.555.0 0 0 .553.553h.553v18.018h37.069v.553a.553.553.0 0 0 .553.553m191.424-19.678a.555.555.0 0 0-.553-.553H2493v-18.019h.553a.553.553.0 0 0 .553-.553v19.125m0-19.125a.555.555.0 0 0-.553-.554H2493v-18.018h.553a.553.553.0 0 0 .553-.553v19.125m0-19.125a.554.554.0 0 0-.553-.553H2493v-18.016h.553a.555.555.0 0 0 .553-.553v19.122m0-19.122a.555.555.0 0 0-.553-.556H2493v-18.016h.553a.555.555.0 0 0 .553-.553v19.125" transform="translate(-1794.277 2736.035)" fill="#cee3ff"/><path id="path218" d="M2493.553-2117.662h-37.622v-1.106h37.622a.555.555.0 0 1 .553.553h0a.555.555.0 0 1-.553.553m-38.728.0h-37.069v-1.106h37.069v1.106m-38.176.0h-37.066v-1.106h37.066v1.106m-38.172.0h-37.069v-1.106h37.069v1.106m-38.175.0h-37.066v-1.106H2340.3v1.106m-38.172.0h-37.622a.555.555.0 0 1-.553-.553.555.555.0 0 1 .553-.553h37.622v1.106" transform="translate(-1794.277 2370.739)" fill="#cee3ff"/><path id="path220" d="M2493.553-2209.848h-37.622v-1.107h37.622a.555.555.0 0 1 .553.554h0a.553.553.0 0 1-.553.553m-38.728.0h-37.069v-1.107h37.069v1.107m-38.176.0h-37.066v-1.107h37.066v1.107m-38.172.0h-37.069v-1.107h37.069v1.107m-38.175.0h-37.066v-1.107H2340.3v1.107m-38.172.0h-37.622a.553.553.0 0 1-.553-.553.555.555.0 0 1 .553-.554h37.622v1.107" transform="translate(-1794.277 2443.801)" fill="#cee3ff"/><path id="path222" d="M2493.553-2302.035h-37.622v-1.106h37.622a.555.555.0 0 1 .553.553h0a.553.553.0 0 1-.553.553m-38.728.0h-37.069v-1.106h37.069v1.106m-38.176.0h-37.066v-1.106h37.066v1.106m-38.172.0h-37.069v-1.106h37.069v1.106m-38.175.0h-37.066v-1.106H2340.3v1.106m-38.172.0h-37.622a.553.553.0 0 1-.553-.553.555.555.0 0 1 .553-.553h37.622v1.106" transform="translate(-1794.277 2516.862)" fill="#cee3ff"/><path id="path224" d="M2493.553-2394.218h-37.622v-1.109h37.622a.555.555.0 0 1 .553.556h0a.555.555.0 0 1-.553.553m-38.728.0h-37.069v-1.109h37.069v1.109m-38.176.0h-37.066v-1.109h37.066v1.109m-38.172.0h-37.069v-1.109h37.069v1.109m-38.175.0h-37.066v-1.109H2340.3v1.109m-38.172.0h-37.622a.555.555.0 0 1-.553-.553.555.555.0 0 1 .553-.556h37.622v1.109" transform="translate(-1794.277 2589.923)" fill="#cee3ff"/><path id="path226" d="M2493.553-2486.405h-37.622v-1.109h37.622a.555.555.0 0 1 .553.556h0a.554.554.0 0 1-.553.552m-38.728.0h-37.069v-1.109h37.069v1.109m-38.176.0h-37.066v-1.109h37.066v1.109m-38.172.0h-37.069v-1.109h37.069v1.109m-38.175.0h-37.066v-1.109H2340.3v1.109m-38.172.0h-37.622a.554.554.0 0 1-.553-.552.555.555.0 0 1 .553-.556h37.622v1.109" transform="translate(-1794.277 2662.985)" fill="#cee3ff"/><path id="path228" d="M3184.545-2463.834h0a.555.555.0 0 1-.553-.553v-114.747a.554.554.0 0 1 .553-.553.553.553.0 0 1 .553.553v114.747a.555.555.0 0 1-.553.553h0" transform="translate(-2523.444 2736.037)" fill="#cee3ff"/><path id="path230" d="M3000.532-2463.834h0a.554.554.0 0 1-.553-.553v-114.747a.553.553.0 0 1 .553-.553.552.552.0 0 1 .553.553v114.747a.553.553.0 0 1-.553.553h0" transform="translate(-2377.606 2736.037)" fill="#cee3ff"/><path id="path232" d="M2816.533-2463.834h0a.553.553.0 0 1-.553-.553v-114.747a.552.552.0 0 1 .553-.553.553.553.0 0 1 .553.553v114.747a.555.555.0 0 1-.553.553h0" transform="translate(-2231.779 2736.037)" fill="#cee3ff"/><path id="path234" d="M2632.521-2463.834h0a.555.555.0 0 1-.553-.553v-114.747a.553.553.0 0 1 .553-.553.552.552.0 0 1 .553.553v114.747a.553.553.0 0 1-.553.553h0" transform="translate(-2085.942 2736.037)" fill="#cee3ff"/><path id="path236" d="M2448.521-2463.834h0a.553.553.0 0 1-.553-.553v-114.747a.551.551.0 0 1 .553-.553.553.553.0 0 1 .553.553v114.747a.555.555.0 0 1-.553.553h0" transform="translate(-1940.115 2736.037)" fill="#cee3ff"/><path id="path238" d="M2262.394-2465.4a1.111 1.111.0 0 1-.99-.611 1.108 1.108.0 0 1 .495-1.485l38.023-19.048 19.609-18.87 18.212-38.067a1.093 1.093.0 0 1 .262-.349l20.7-18.447a1.107 1.107.0 0 1 .96-.254 1.1 1.1.0 0 1 .78.614l17.454 37.533 20.738 36.845 15.617-17.941a1.108 1.108.0 0 1 .8-.382 1.081 1.081.0 0 1 .822.326l17.769 17.853 18.572-55.671a1.071 1.071.0 0 1 .266-.432l38.172-38.25a1.106 1.106.0 0 1 1.566.0 1.1 1.1.0 0 1 0 1.563l-37.99 38.064-19.058 57.129a1.094 1.094.0 0 1-.8.724 1.1 1.1.0 0 1-1.038-.3l-18.2-18.281-15.867 18.229a1.1 1.1.0 0 1-.945.374 1.11 1.11.0 0 1-.852-.559l-21.529-38.247c-.014-.028-.025-.053-.039-.078l-16.843-36.219-19.427 17.307-18.2 38.048a1.088 1.088.0 0 1-.233.318l-19.874 19.125a1.109 1.109.0 0 1-.271.194l-38.175 19.122a1.091 1.091.0 0 1-.495.119" transform="translate(-1792.163 2738.154)" fill="#eb4d44"/><path id="path240" d="M2262.4-2465.4a1.1 1.1.0 0 1-.772-.315 1.107 1.107.0 0 1-.02-1.566l55.975-57.372a1.106 1.106.0 0 1 1.549-.033l19.589 18.389 37.417-37.489a1.1 1.1.0 0 1 1.55-.017l19.07 18.356 17.537-18.323a1.124 1.124.0 0 1 .789-.343 1.134 1.134.0 0 1 .8.326l37.085 37.16 37.49-75.123a1.1 1.1.0 0 1 1.482-.5 1.1 1.1.0 0 1 .5 1.483l-38.172 76.5a1.113 1.113.0 0 1-.813.6 1.105 1.105.0 0 1-.959-.31l-37.376-37.448-17.521 18.306a1.105 1.105.0 0 1-.777.34 1.1 1.1.0 0 1-.791-.31l-19.086-18.37-37.406 37.481a1.1 1.1.0 0 1-1.538.025l-19.584-18.383-55.217 56.6a1.094 1.094.0 0 1-.791.334" transform="translate(-1792.164 2738.155)" fill="#003da8"/><path id="path242" d="M2014.411-2740.875H1946.1v-123.482a2.731 2.731.0 0 1 2.73-2.73h80.915a2.731 2.731.0 0 1 2.73 2.73v105.419a18.063 18.063.0 0 1-18.065 18.063" transform="translate(-1542.365 2963.812)" fill="#9ec8ff"/><path id="path244" d="M2016.118-2736.21h-65.336V-2854.2a2.594 2.594.0 0 1 2.594-2.593h77.308a2.594 2.594.0 0 1 2.592 2.593v100.83a17.16 17.16.0 0 1-17.158 17.161" transform="translate(-1546.074 2955.654)" fill="#fff"/><path id="path246" d="M1848.251-2414.994v-2.174a2.92 2.92.0 0 0-2.683-3.106h-82.729a2.918 2.918.0 0 0-2.683 3.106v2.174c0 15.416 10.8 27.91 24.112 27.91h84.527c-13.316.0-20.727-11.09-20.544-27.91" transform="translate(-1394.995 2609.695)" fill="#9ec8ff"/><path id="path248" d="M1859.847-2400.721v-1.761a2.512 2.512.0 0 0-2.512-2.512h-77.468a2.511 2.511.0 0 0-2.512 2.512v1.761a22.579 22.579.0 0 0 22.58 22.58h82.491c-12.47.0-22.58-6.035-22.58-22.58" transform="translate(-1408.627 2597.585)" fill="#fff"/><path id="path250" d="M2009.738-2800.1a2.278 2.278.0 0 0-2.277 2.277v32.012a2.278 2.278.0 0 0 2.277 2.274h58.924a2.278 2.278.0 0 0 2.274-2.274v-32.012a2.278 2.278.0 0 0-2.274-2.277zm58.924 37.669h-58.924a3.386 3.386.0 0 1-3.383-3.381v-32.012a3.388 3.388.0 0 1 3.383-3.383h58.924a3.386 3.386.0 0 1 3.381 3.383v32.012a3.384 3.384.0 0 1-3.381 3.381" transform="translate(-1590.118 2911.599)" fill="#9ec8ff"/><path id="path252" d="M1958.451-2552.18h-64.769a1.677 1.677.0 0 1-1.673-1.673 1.677 1.677.0 0 1 1.673-1.674h64.769a1.678 1.678.0 0 1 1.673 1.674 1.677 1.677.0 0 1-1.673 1.673" transform="translate(-1499.495 2716.888)" fill="#9ec8ff"/><path id="path254" d="M1958.451-2522.754h-64.769a1.677 1.677.0 0 1-1.673-1.673 1.677 1.677.0 0 1 1.673-1.674h64.769a1.678 1.678.0 0 1 1.673 1.674 1.677 1.677.0 0 1-1.673 1.673" transform="translate(-1499.495 2693.567)" fill="#9ec8ff"/><path id="path256" d="M1958.451-2494.354h-64.769a1.677 1.677.0 0 1-1.673-1.674 1.68 1.68.0 0 1 1.673-1.674h64.769a1.68 1.68.0 0 1 1.673 1.674 1.678 1.678.0 0 1-1.673 1.674" transform="translate(-1499.495 2671.059)" fill="#9ec8ff"/><path id="path258" d="M2217.72-2773.211h-2.166a.828.828.0 0 1-.827-.827v-1.781a.826.826.0 0 1 .827-.827h2.166a.826.826.0 0 1 .827.827v1.781a.828.828.0 0 1-.827.827" transform="translate(-1755.262 2892.135)" fill="#9ec8ff"/><path id="path260" d="M2251.2-2773.211h-2.166a.828.828.0 0 1-.827-.827v-1.781a.826.826.0 0 1 .827-.827h2.166a.826.826.0 0 1 .827.827v1.781a.827.827.0 0 1-.827.827" transform="translate(-1781.797 2892.135)" fill="#9ec8ff"/><path id="path262" d="M2284.68-2773.211h-2.166a.828.828.0 0 1-.827-.827v-1.781a.826.826.0 0 1 .827-.827h2.166a.826.826.0 0 1 .827.827v1.781a.828.828.0 0 1-.827.827" transform="translate(-1808.331 2892.135)" fill="#9ec8ff"/><path id="path264" d="M2046.143-2693.353h-8.722v-14.4h8.722v14.4" transform="translate(-1614.74 2837.534)" fill="#9ec8ff"/><path id="path266" d="M2162.034-2688.767h-8.719v-13.2h8.719v13.2" transform="translate(-1706.59 2832.948)" fill="#9ec8ff"/><path id="path268" d="M2229.06-2711.275h-8.718v-19.091h8.718v19.091" transform="translate(-1759.711 2855.456)" fill="#9ec8ff"/><path id="path270" d="M2102.953-2671.658h-8.718v-8.722h8.718v8.722" transform="translate(-1659.767 2815.839)" fill="#9ec8ff"/><path id="path282" d="M2726.658-2492.082a2.752 2.752.0 0 0-2.752-2.752 2.754 2.754.0 0 0-2.752 2.752 2.752 2.752.0 0 0 2.752 2.752 2.751 2.751.0 0 0 2.752-2.752" transform="translate(-2156.625 2668.787)" fill="#eb4d44"/><path id="path284" d="M2529.325-2310.989a2.753 2.753.0 0 0-2.752-2.753 2.754 2.754.0 0 0-2.752 2.753 2.752 2.752.0 0 0 2.752 2.751 2.75 2.75.0 0 0 2.752-2.751" transform="translate(-2000.231 2525.263)" fill="#003da8"/><path id="path286" d="M2810.885-2403.175a2.754 2.754.0 0 0-2.752-2.752 2.753 2.753.0 0 0-2.752 2.752 2.753 2.753.0 0 0 2.752 2.755 2.755 2.755.0 0 0 2.752-2.755" transform="translate(-2223.378 2598.324)" fill="#003da8"/><path id="path288" d="M2994.887-2403.175a2.755 2.755.0 0 0-2.755-2.752 2.754 2.754.0 0 0-2.752 2.752 2.755 2.755.0 0 0 2.752 2.755 2.755 2.755.0 0 0 2.755-2.755" transform="translate(-2369.206 2598.324)" fill="#003da8"/><path id="path290" d="M3178.9-2403.175a2.752 2.752.0 0 0-2.752-2.752 2.752 2.752.0 0 0-2.752 2.752 2.753 2.753.0 0 0 2.752 2.755 2.753 2.753.0 0 0 2.752-2.755" transform="translate(-2515.043 2598.324)" fill="#eb4d44"/><path id="path292" d="M1805.837-2317.034a14.856 14.856.0 0 1-14.854 14.857 14.856 14.856.0 0 1-14.854-14.857 14.855 14.855.0 0 1 14.854-14.854 14.855 14.855.0 0 1 14.854 14.854" transform="translate(-1407.655 2539.645)" fill="#3d9438"/><path id="path294" d="M1822.04-2273.842h-.031a.821.821.0 0 1-.592-.283l-4.036-4.583a.834.834.0 0 1 .075-1.173.83.83.0 0 1 1.17.075l3.458 3.928 7.994-7.823a.83.83.0 0 1 1.173.011.833.833.0 0 1-.011 1.176l-8.619 8.434a.832.832.0 0 1-.581.238" transform="translate(-1440.186 2501.643)" fill="#fff"/><path id="path354" d="M4163.13-2320.591a6.922 6.922.0 0 1-6.923 6.921 6.923 6.923.0 0 1-6.924-6.921 6.923 6.923.0 0 1 6.924-6.924 6.923 6.923.0 0 1 6.923 6.924" transform="translate(-3288.477 2536.179)" fill="#9ec8ff"/><path id="path358" d="M3476.151-2407.835H3361.479a2.261 2.261.0 0 1-2.26-2.26v-49.344a2.259 2.259.0 0 1 2.26-2.26h114.672a2.259 2.259.0 0 1 2.26 2.26v49.344a2.261 2.261.0 0 1-2.26 2.26" transform="translate(-2662.318 2642.527)" fill="#9ec8ff"/><path id="path360" d="M3485.775-2356.3H3376.75a1.826 1.826.0 0 1-1.825-1.826v-33.533a1.826 1.826.0 0 1 1.825-1.826h109.024a1.824 1.824.0 0 1 1.825 1.826v33.533a1.824 1.824.0 0 1-1.825 1.826" transform="translate(-2674.766 2588.466)" fill="#fff"/><path id="path362" d="M3386.558-2438.392h-2.647a1.013 1.013.0 0 1-1.012-1.013v-2.18a1.01 1.01.0 0 1 1.012-1.01h2.647a1.01 1.01.0 0 1 1.012 1.01v2.18a1.013 1.013.0 0 1-1.012 1.013" transform="translate(-2681.085 2627.384)" fill="#fff"/><path id="path364" d="M3427.489-2438.392h-2.647a1.011 1.011.0 0 1-1.01-1.013v-2.18a1.008 1.008.0 0 1 1.01-1.01h2.647a1.011 1.011.0 0 1 1.012 1.01v2.18a1.014 1.014.0 0 1-1.012 1.013" transform="translate(-2713.527 2627.384)" fill="#fff"/><path id="path366" d="M3468.409-2438.392h-2.645a1.013 1.013.0 0 1-1.012-1.013v-2.18a1.01 1.01.0 0 1 1.012-1.01h2.645a1.01 1.01.0 0 1 1.012 1.01v2.18a1.013 1.013.0 0 1-1.012 1.013" transform="translate(-2745.957 2627.384)" fill="#fff"/><path id="path368" d="M3661.455-2367.828h-59.6a1.787 1.787.0 0 1-1.781-1.782 1.787 1.787.0 0 1 1.781-1.784h59.6a1.788 1.788.0 0 1 1.781 1.784 1.787 1.787.0 0 1-1.781 1.782" transform="translate(-2853.204 2570.955)" fill="#9ec8ff"/><path id="path370" d="M3445.375-2235.229h-59.6a1.789 1.789.0 0 1-1.784-1.785 1.788 1.788.0 0 1 1.784-1.781h59.6a1.788 1.788.0 0 1 1.784 1.781 1.789 1.789.0 0 1-1.784 1.785" transform="translate(-2681.952 2465.865)" fill="#9ec8ff"/><path id="path372" d="M3706.9-2235.229h-6.165a.613.613.0 0 1-.611-.612v-2.345a.611.611.0 0 1 .611-.609h6.165a.61.61.0 0 1 .608.609v2.345a.612.612.0 0 1-.608.612" transform="translate(-2932.5 2465.865)" fill="#9ec8ff"/><path id="path374" d="M3751.714-2235.229h-6.165a.613.613.0 0 1-.611-.612v-2.345a.611.611.0 0 1 .611-.609h6.165a.611.611.0 0 1 .609.609v2.345a.613.613.0 0 1-.609.612" transform="translate(-2968.016 2465.865)" fill="#9ec8ff"/><path id="path376" d="M3517.045-2326h-98.7a1.215 1.215.0 0 1-1.211-1.212 1.214 1.214.0 0 1 1.211-1.209h98.7a1.214 1.214.0 0 1 1.209 1.209 1.214 1.214.0 0 1-1.209 1.212" transform="translate(-2708.222 2536.897)" fill="#9ec8ff"/><path id="path378" d="M3517.045-2300.83h-98.7a1.214 1.214.0 0 1-1.211-1.208 1.212 1.212.0 0 1 1.211-1.209h98.7a1.212 1.212.0 0 1 1.209 1.209 1.213 1.213.0 0 1-1.209 1.208" transform="translate(-2708.222 2516.947)" fill="#9ec8ff"/><path id="path388" d="M2823.818-1954.753h-15.476l4.514-6.227a68.1 68.1.0 0 1 11.087 3.928l-.125 2.3m-37.362.0h-15.831l-.005-3.709a67.855 67.855.0 0 1 11.28-3.333l4.556 7.043" transform="translate(-2195.83 2246.332)" fill="#9ec8ff"/></g></g></svg>