<svg id="Advice" xmlns="http://www.w3.org/2000/svg" width="92.729" height="95.297" viewBox="0 0 92.729 95.297">
  <g id="Group_330" data-name="Group 330" transform="translate(0 0)">
    <path id="Path_2842" data-name="Path 2842" d="M53.361,5.594a26.331,26.331,0,0,0-23.719,38l-2.7,12.3a2.157,2.157,0,0,0,2.594,2.561l12.23-2.729A26.414,26.414,0,1,0,53.361,5.594Zm0,4.313A22.152,22.152,0,1,1,42.916,51.583a2.157,2.157,0,0,0-1.482-.2L31.865,53.5l2.123-9.6a2.156,2.156,0,0,0-.2-1.482A22.17,22.17,0,0,1,53.361,9.906ZM41.7,29.481a2.587,2.587,0,0,0-2.561,2.594,2.561,2.561,0,0,0,5.121,0A2.587,2.587,0,0,0,41.7,29.481Zm11.657,0A2.587,2.587,0,0,0,50.8,32.076a2.561,2.561,0,1,0,5.121,0A2.587,2.587,0,0,0,53.361,29.481Zm11.657,0a2.587,2.587,0,0,0-2.561,2.594,2.561,2.561,0,0,0,5.121,0A2.587,2.587,0,0,0,65.018,29.481ZM93.454,49.461a6.054,6.054,0,0,0-4.313,1.887l-.034-.034-.034.067c-.048.049-2.957,2.927-6.132,6.1-3.2,3.2-6.546,6.52-7.547,7.614a2.159,2.159,0,1,0,3.2,2.9c.683-.747,4.184-4.255,7.378-7.446S92.14,54.38,92.14,54.38l.067-.034a1.66,1.66,0,0,1,1.247-.573A2.2,2.2,0,0,1,95.408,56.2a2.75,2.75,0,0,1-.505,1.617c-.006.011.006.026,0,.034-.094.113-12.991,15.589-21.327,25.336-2.3,2.693-5.467,5.357-9.939,5.357H38.064c-2.751,0-5.64.5-7.884,2.7l-6.1,5.963a2.156,2.156,0,1,0,3.033,3.066l6.1-5.964c1.23-1.2,2.534-1.449,4.852-1.449H63.637c6.192,0,10.528-3.74,13.207-6.873,8.4-9.827,21.428-25.471,21.428-25.471q.035-.05.067-.1A7.059,7.059,0,0,0,99.72,56.2,6.529,6.529,0,0,0,93.454,49.461ZM36.582,65.531c-4.575,0-9.291.643-13.072,3.74L7.776,82.142a2.166,2.166,0,0,0,2.763,3.335l15.7-12.87c2.623-2.148,6.165-2.763,10.343-2.763H68.32a4.485,4.485,0,0,1-.371,3.639c-.873,1.613-2.35,2.5-3.066,2.426q-.1-.022-.2-.034H44.1a2.156,2.156,0,1,0,0,4.313H64.681v-.034c3.159.186,5.664-2.041,7.075-4.649,1.448-2.677,1.921-6.274-.236-9.1a2.156,2.156,0,0,0-1.718-.876Z" transform="translate(-6.991 -5.594)" fill="#003da8"/>
  </g>
</svg>
