<svg id="Analyze" xmlns="http://www.w3.org/2000/svg" width="108.777" height="80.378" viewBox="0 0 108.777 80.378">
  <g id="Group_329" data-name="Group 329" transform="translate(0 0)">
    <path id="Path_2841" data-name="Path 2841" d="M113.775,23.119a1.672,1.672,0,0,0-.141-.685h0a2.557,2.557,0,0,0-.363-.544l-.161-.121a1.209,1.209,0,0,0-.423-.282l-.181-.1a2.014,2.014,0,0,0-.745-.282H103.7a2.014,2.014,0,0,0,0,4.029h3.2L97.66,34.339a7.775,7.775,0,0,0-8.057,0L80.4,25.133A8.057,8.057,0,1,0,68.07,26.987l-3.223,6.043a24.172,24.172,0,0,0-29.631,9.145,6.87,6.87,0,0,0,0-.927,8.057,8.057,0,1,0-14.584,4.673L5.465,64.05a2.014,2.014,0,0,0,.262,2.84,2.014,2.014,0,0,0,1.289.544,2.014,2.014,0,0,0,1.551-.725L23.715,48.58a7.9,7.9,0,0,0,8.964-1.41,23.93,23.93,0,0,0-1.491,8.178A24.172,24.172,0,0,0,68.8,75.491a9.023,9.023,0,0,0-.121,1.289,7.9,7.9,0,0,0,2.357,5.68l8.5,8.5A8.09,8.09,0,0,0,90.973,79.52l-8.561-8.541a7.9,7.9,0,0,0-5.68-2.357,9.023,9.023,0,0,0-1.289.121,24.172,24.172,0,0,0-7.05-33.76l3.243-6.043a7.614,7.614,0,0,0,5.882-.927l9.205,9.205a8.057,8.057,0,1,0,13.818,0l9.205-9.246v3.2a2.014,2.014,0,0,0,4.029,0V23.119ZM55.36,35.2A20.244,20.244,0,0,1,62.954,36.7l-3.807,7.191a11.764,11.764,0,0,0-3.787-.624,12.086,12.086,0,0,0-9.729,4.955l-7.272-3.626a20.143,20.143,0,0,1,17-9.387Zm0,12.086A8.057,8.057,0,1,1,47.3,55.348,8.057,8.057,0,0,1,55.36,47.291Zm-28.2-2.014a4.029,4.029,0,1,1,4.029-4.029A4.029,4.029,0,0,1,27.159,45.277ZM79.532,73.86,88.072,82.4a4.031,4.031,0,1,1-5.7,5.7l-8.5-8.581a4.029,4.029,0,0,1,5.66-5.66ZM75.5,55.348A20.143,20.143,0,1,1,36.546,48.2L43.8,51.8A12.094,12.094,0,1,0,62.712,45.78l3.807-7.191A20.143,20.143,0,0,1,75.5,55.348ZM69.46,21.1a4.029,4.029,0,1,1,6.869,2.84h0A4.017,4.017,0,0,1,69.46,21.1ZM93.632,45.277a4.017,4.017,0,0,1-2.84-6.869h0a4.029,4.029,0,0,1,5.68,0h0a4.017,4.017,0,0,1-2.84,6.869Z" transform="translate(-4.998 -12.953)" fill="#003da8"/>
  </g>
</svg>
