<svg xmlns="http://www.w3.org/2000/svg" xmlns:xlink="http://www.w3.org/1999/xlink" width="68" height="68" viewBox="0 0 68 68">
  <defs>
    <linearGradient id="linear-gradient" x1="0.504" y1="6.968" x2="0.504" y2="6.951" gradientUnits="objectBoundingBox">
      <stop offset="0" stop-color="#070d48"/>
      <stop offset="0.687" stop-color="#00010a"/>
      <stop offset="1" stop-color="#062251"/>
    </linearGradient>
  </defs>
  <g id="call" transform="translate(-1804 -877)">
    <g id="Graphics-_x2F_-App-Icons-_x2F_-WhatsApp" transform="translate(1798.3 872)">
      <g id="Icon_6_" transform="translate(5.7 5)">
        <path id="Background_7_" d="M22.986,5H21.158a29.55,29.55,0,0,0-4.34.381A16.505,16.505,0,0,0,13.086,6.6,13.018,13.018,0,0,0,9.736,9.036,13.524,13.524,0,0,0,7.3,12.386a13.759,13.759,0,0,0-1.218,3.655c-.152.914-.3,2.894-.381,4.417V57.542a29.549,29.549,0,0,0,.381,4.34A16.506,16.506,0,0,0,7.3,65.614a13.018,13.018,0,0,0,2.437,3.351A13.524,13.524,0,0,0,13.086,71.4a13.759,13.759,0,0,0,3.655,1.218c.914.152,2.894.3,4.417.381H58.242a29.55,29.55,0,0,0,4.34-.381A16.506,16.506,0,0,0,66.314,71.4a13.018,13.018,0,0,0,3.351-2.437A13.524,13.524,0,0,0,72.1,65.614a13.759,13.759,0,0,0,1.218-3.655c.152-.914.3-2.894.381-4.417V20.458a29.549,29.549,0,0,0-.381-4.34A16.505,16.505,0,0,0,72.1,12.386a13.018,13.018,0,0,0-2.437-3.351A13.524,13.524,0,0,0,66.314,6.6a13.759,13.759,0,0,0-3.655-1.218c-.914-.152-2.894-.3-4.417-.381Z" transform="translate(-5.7 -5)" fill="url(#linear-gradient)"/>
      </g>
    </g>
    <g id="Group_32977" data-name="Group 32977">
      <g id="Group_32976" data-name="Group 32976" transform="translate(0.155 -3.398)">
        <path id="WhatsApp-Icon" d="M62.535,50.447c-.8-.4-4.78-2.29-5.477-2.589s-1.295-.4-1.792.4-2.091,2.589-2.49,3.087a1.215,1.215,0,0,1-1.693.2,22,22,0,0,1-6.473-3.884,24.623,24.623,0,0,1-4.481-5.477c-.5-.8,0-1.195.4-1.593a17.338,17.338,0,0,0,1.195-1.394,9.091,9.091,0,0,0,.8-1.295,1.386,1.386,0,0,0-.1-1.394c-.2-.4-1.792-4.282-2.49-5.875-.7-1.494-1.295-1.295-1.792-1.394H36.644a2.867,2.867,0,0,0-2.091,1A8.925,8.925,0,0,0,31.764,36.8c0,3.884,2.888,7.568,3.286,8.166.4.5,5.676,8.464,13.643,11.85,1.892.8,3.386,1.295,4.581,1.693a11.335,11.335,0,0,0,5.079.3c1.494-.2,4.78-1.892,5.377-3.685a6.157,6.157,0,0,0,.5-3.685,6.3,6.3,0,0,0-1.693-1" transform="translate(1790.08 870.162)" fill="#fff"/>
        <path id="Path_39483" data-name="Path 39483" d="M24.74,13.9h.18a1,1,0,0,0,1-.82,6,6,0,0,0-7-7,1.016,1.016,0,1,0,.36,2,4,4,0,0,1,4.68,4.68,1,1,0,0,0,.78,1.14ZM17,4.58A8,8,0,0,1,27.42,15a1,1,0,0,0,1.86.74,10,10,0,0,0-13-13A1,1,0,1,0,17,4.58Z" transform="translate(1821 898.012)" fill="#fff"/>
      </g>
    </g>
  </g>
</svg>
