<svg xmlns="http://www.w3.org/2000/svg" width="649.85" height="446" viewBox="0 0 649.85 446"><g id="Contact_Uheme_image" data-name="Contact Uheme image" transform="translate(-1052.591 -201)"><g id="Group_32814" data-name="Group 32814" transform="translate(-2805 -9481)"><g id="g10" transform="translate(3857.591 9710.961)"><g id="g12" transform="translate(0 0)"><path id="path96" d="M474.715-327.368c-3.4-11.7 5.224-23.439 17.217-23.439H467.741c-11.991.0-20.61 11.735-17.217 23.439l53.715 185.156H528.43L474.715-327.368" transform="translate(-346.494 558.049)" fill="#291919"/><path id="path98" d="M469.306-327.368 523.02-142.212H712.063l-56.717-195.5a17.994 17.994.0 0 0-17.215-13.1H486.522c-11.992.0-20.612 11.735-17.217 23.439" transform="translate(-341.084 558.049)" fill="#e43b31"/><path id="path100" d="M636.136-334.814s29.343 6.138 46.5 29.192 39.139 67.555 39.139 67.555l-25.737 41.818L657.6-246.109l-21.466-88.7" transform="translate(-292.815 562.656)" fill="#fff"/><path id="path102" d="M652.8-261.587l6.554-19.491 18.592 52.109z" transform="translate(-288.015 578.134)" fill="#291919"/><path id="path104" d="M687.092-245.135c-2.363 1.908-7.1 67.394 4.936 86.917H567.68l-33.927-66.07 31.789-99.948s14.079-8.661 38.365-13.959l53.955 8.434 7.764-4.079 23.331 41.1-1.865 47.6" transform="translate(-322.305 561.682)" fill="#fff"/><path id="path106" d="M660.334-302.9s17.854 31.37-2.5 66.482-24.717-47.47-24.717-47.47L660.334-302.9" transform="translate(-293.683 571.848)" fill="#fff"/><path id="path108" d="M622.885-222.222h27.306a13.209 13.209.0 0 1 11.226 5.922l15.515 24.677h-22.9l-7.737-9.368s-24.536 11.034-34.051-5.93l10.643-15.3" transform="translate(-299.697 595.087)" fill="#e79977"/><path id="path110" d="M564.625-213.364c12.176-22.1 40.693-72.735 40.693-72.735l-29.87-41.846s-18.151 4.716-31.517 30.46c-12.156 23.41-42.935 76.954-39.759 114.836a16.011 16.011.0 0 0 11.756 14.12c41.241 11.029 131.639 7.357 131.639 7.357l10.22-34.854-93.161-17.339" transform="translate(-330.892 564.635)" fill="#fff"/><path id="path112" d="M647-216.243l1.484-5.061-108.6-20.931-.289 1.5 106.948 20.614-1.012 3.448 1.468.429" transform="translate(-320.622 589.322)" fill="#291919"/><path id="path114" d="M580.453-279.861l-13.43 55.183-15.968-2.537z" transform="translate(-317.322 578.485)" fill="#291919"/><path id="path116" d="M590.915-411.912a44.2 44.2.0 0 1-13.179 22.891c-9.19 8.2-26.07 34.466-20.689 67.248l141.171 6.933c3.059-6.864 12.946-14.4-2.239-43.433C690-369.7 691.751-390.2 691.751-390.2l-8.721-22.393-55.806-7.768-36.309 8.444" transform="translate(-315.895 538.016)" fill="#291919"/><path id="path118" d="M635.754-380.192a13.019 13.019.0 0 0 11.7 14.218 13.019 13.019.0 0 0 14.217-11.7 13.02 13.02.0 0 0-11.7-14.218 13.019 13.019.0 0 0-14.216 11.7" transform="translate(-292.943 546.196)" fill="#cc795e"/><path id="path120" d="M602.827-373.811l-4.237 46.144c-1.068 10.627 6.961 9.477 16.844 10.852l12.58 1.752a6.4 6.4.0 0 0 7.026-5.813l3.924-32.768-36.137-20.167" transform="translate(-303.657 551.423)" fill="#e79977"/><path id="path122" d="M604.336-362.286l30.338 27.117 3.364-26.291z" transform="translate(-301.975 554.743)" fill="#cc795e"/><path id="path124" d="M670.714-400.081l-5.247 37.7c-1.808 12.982-10.68 21.564-22.345 24.638a36.253 36.253.0 0 1-22.907-1.92l-19.247-7.9 3.667-47.932 27-17.459 39.074 12.868" transform="translate(-302.944 540.149)" fill="#e79977"/><path id="path136" d="M624-369.1a8.672 8.672.0 0 0 2.615 2.212 16.437 16.437.0 0 0 8.475 2.045c.747.0 1.537-.034 2.37-.112a1.117 1.117.0 0 0 1.008-1.214 1.117 1.117.0 0 0-1.214-1.01c-.768.072-1.487.1-2.164.1a14.21 14.21.0 0 1-7.342-1.736 8.076 8.076.0 0 1-1.527-1.142c-.154-.149-.263-.27-.328-.347l-.064-.079-.01-.014-.388.287.4-.278-.007-.009-.388.287.4-.278a1.119 1.119.0 0 0-1.556-.271A1.117 1.117.0 0 0 624-369.1" transform="translate(-296.368 552.272)" fill="#291919"/><path id="path138" d="M592.195-384.535c.5 2.44 43.7-8.426 46.8-36.747.0.0-54.261.409-46.8 36.747" transform="translate(-305.675 537.749)" fill="#291919"/><path id="path140" d="M583.109-406.327c3.505-18.522 18.824-37.922 60.239-32.493 22.374 2.933 48.655 25.929 40.979 53.139a6.642 6.642.0 0 1-.381 1.07c-28.356-.285-53.927-18.249-53.927-18.249l-46.909-3.467" transform="translate(-308.089 532.431)" fill="#291919"/><path id="path142" d="M614.8-404.154l-4.108 27.506-18.235-23.617z" transform="translate(-305.397 542.683)" fill="#291919"/><path id="path144" d="M587.479-383.769a13.37 13.37.0 0 0 12.015 14.6 13.368 13.368.0 0 0 14.6-12.015 13.369 13.369.0 0 0-12.015-14.6 13.369 13.369.0 0 0-14.6 12.013" transform="translate(-306.848 545.076)" fill="#e79977"/><path id="path146" d="M604.355-379.664c0-.029.031-.331.031-.817a11.568 11.568.0 0 0-1.322-5.52 7.392 7.392.0 0 0-2.693-2.779 9.1 9.1.0 0 0-4.714-1.159c-.3.0-.606.01-.924.031a1.117 1.117.0 0 0-1.039 1.188 1.117 1.117.0 0 0 1.188 1.039c.27-.017.527-.026.775-.026a6.908 6.908.0 0 1 3.581.848 5.616 5.616.0 0 1 2.415 3.158 10.372 10.372.0 0 1 .5 3.218c0 .2-.005.359-.012.462l-.007.115v.026a1.117 1.117.0 0 0 1 1.219 1.118 1.118.0 0 0 1.219-1" transform="translate(-305.041 546.777)" fill="#291919"/><path id="path148" d="M613.707-342.31l-29.664 6.473s9.935 22.4 42.976 22.4c26.123.0 28.976-17.9 28.976-17.9l-19.08-8.872-23.207-2.1" transform="translate(-307.82 560.497)" fill="#e79977"/><path id="path150" d="M591.822-186.092H701.479v-12.374H591.822a6.188 6.188.0 0 0-6.186 6.188 6.187 6.187.0 0 0 6.186 6.186" transform="translate(-307.361 601.93)" fill="#1c1d23"/><path id="path152" d="M664.366-159.04H821.8a18.641 18.641.0 0 0 17.957-13.641L866.5-274.476c2.5-9-2.669-17.909-12.011-17.909H708.9a12.3 12.3.0 0 0-11.891 9.169L664.366-159.04" transform="translate(-284.683 574.877)" fill="#2a2f3a"/><path id="path154" d="M741.049-233.573A13.748 13.748.0 0 0 754.8-219.825a13.746 13.746.0 0 0 13.746-13.748A13.746 13.746.0 0 0 754.8-247.321a13.748 13.748.0 0 0-13.748 13.748" transform="translate(-262.596 587.857)" fill="#fff"/><path id="path156" d="M428.6-187.389h573.845v-2.4H428.6z" transform="translate(-352.594 604.428)" fill="#fff"/><path id="path158" d="M369.591-187.389H418.65v-2.4H369.591z" transform="translate(-369.591 604.428)" fill="#fff"/><path id="path160" d="M821.458-375.765H720.211a3.748 3.748.0 0 1-3.747-3.749v-30.418a3.748 3.748.0 0 1 3.747-3.749H821.458a3.75 3.75.0 0 1 3.751 3.749v30.418a3.75 3.75.0 0 1-3.751 3.749" transform="translate(-269.677 539.939)" fill="#eb4d44"/><path id="path162" d="M730.43-402.293h65.265v-1.47H730.43z" transform="translate(-265.654 542.796)" fill="#fff"/><path id="path164" d="M730.43-395.233h29.222V-396.7H730.43z" transform="translate(-265.654 544.83)" fill="#fff"/><path id="path166" d="M727.631-387.575V-372.8l18.586-14.778z" transform="translate(-266.46 547.458)" fill="#eb4d44"/><path id="path168" d="M560.346-418.522H485.13A13.227 13.227.0 0 1 471.9-431.749v-69.927A10.027 10.027.0 0 1 481.931-511.7h78.416a10.027 10.027.0 0 1 10.026 10.028v73.126a10.027 10.027.0 0 1-10.026 10.028" transform="translate(-340.121 511.704)" fill="#003da8"/><path id="path170" d="M534.269-457.631l-1.2 1.2c-.7.6-1.3 1.3-2 2a4.762 4.762.0 0 1-3.6 1.5h-.5a21.081 21.081.0 0 1-7.809-2.4 45.586 45.586.0 0 1-14.919-11.714 43.451 43.451.0 0 1-7.309-12.116 12.4 12.4.0 0 1-1.2-6.208 4.218 4.218.0 0 1 1.4-2.9l3.4-3.406a2.1 2.1.0 0 1 1.4-.7 1.918 1.918.0 0 1 1.4.7q.9.9 1.8 1.8a9.5 9.5.0 0 0 1 1l2.8 2.8a2.353 2.353.0 0 1 .7 1.4 2.1 2.1.0 0 1-.7 1.4c-.3.3-.6.6-.9.9-.9.9-1.7 1.7-2.5 2.5l-.1.1a2.189 2.189.0 0 0-.6 2.5v.1a22.984 22.984.0 0 0 3.3 5.406 37.087 37.087.0 0 0 9.111 8.31 7.986 7.986.0 0 0 1.3.7 9.682 9.682.0 0 1 1 .5l.1.1a2.3 2.3.0 0 0 2.8-.5l3.5-3.505a2.1 2.1.0 0 1 1.4-.7 2.091 2.091.0 0 1 1.3.7l5.607 5.607A1.9 1.9.0 0 1 534.269-457.631zm2.3-5.207-5.609-5.607a4.915 4.915.0 0 0-3.6-1.7 5.194 5.194.0 0 0-3.6 1.6l-3.2 3.2c-.2-.1-.4-.2-.6-.3a9.533 9.533.0 0 1-1-.5 34.545 34.545.0 0 1-8.31-7.61 18.176 18.176.0 0 1-2.6-4.1c.8-.7 1.5-1.5 2.2-2.2.3-.3.6-.6.9-.9a5.31 5.31.0 0 0 1.7-3.706 5.309 5.309.0 0 0-1.7-3.7l-2.8-2.8a9.068 9.068.0 0 1-.9-1c-.6-.6-1.3-1.3-1.9-1.9a5.193 5.193.0 0 0-3.6-1.6 4.966 4.966.0 0 0-3.607 1.6l-3.5 3.505a8.056 8.056.0 0 0-2.3 4.9 18.228 18.228.0 0 0 1.3 7.61 40.973 40.973.0 0 0 7.809 13.117 48.675 48.675.0 0 0 16.02 12.515 26.569 26.569.0 0 0 9.013 2.7h.7a7.953 7.953.0 0 0 6.007-2.6l.1-.1a15.375 15.375.0 0 1 1.8-1.8c.4-.4.9-.9 1.3-1.3a5.024 5.024.0 0 0 0-7.309" transform="translate(-334.192 516.32)" fill="#fff"/><path id="path172" d="M450.194-365.87a39.11 39.11.0 0 1-39.11 39.11 39.11 39.11.0 0 1-39.11-39.11 39.11 39.11.0 0 1 39.11-39.11 39.11 39.11.0 0 1 39.11 39.11" transform="translate(-368.905 542.445)" fill="#eb4d44"/><path id="path174" d="M423.953-360.058v-.855H389.791v-21.773H423.1v22.628h.855v0h.855v-23.484a.867.867.0 0 0-.251-.6.86.86.0 0 0-.6-.251H388.936a.86.86.0 0 0-.6.251.867.867.0 0 0-.251.6v23.484a.867.867.0 0 0 .251.6.86.86.0 0 0 .6.251h35.017a.86.86.0 0 0 .6-.251.867.867.0 0 0 .251-.6h-.855" transform="translate(-364.265 548.374)" fill="#fff"/><path id="path176" d="M388.407-382.87l17.509 13.8a.859.859.0 0 0 1.06.0l17.507-13.8a.855.855.0 0 0 .143-1.2.857.857.0 0 0-1.2-.143l-16.978 13.38-16.978-13.38a.857.857.0 0 0-1.2.143.855.855.0 0 0 .143 1.2" transform="translate(-364.265 548.374)" fill="#fff"/><path id="path178" d="M886.784-335.845H758.57a3.51 3.51.0 0 1-3.51-3.51 3.511 3.511.0 0 1 3.51-3.51H886.784a3.511 3.511.0 0 1 3.51 3.51 3.51 3.51.0 0 1-3.51 3.51" transform="translate(-258.56 560.336)" fill="#6186c6"/><path id="path180" d="M664.5-476.6H606.2a3.51 3.51.0 0 1-3.51-3.51 3.51 3.51.0 0 1 3.51-3.51h58.3a3.51 3.51.0 0 1 3.51 3.51 3.51 3.51.0 0 1-3.51 3.51" transform="translate(-302.449 519.793)" fill="#6186c6"/><path id="path182" d="M411.135-293.777H372.907a3.317 3.317.0 0 0-3.316 3.318v.386a3.315 3.315.0 0 0 3.316 3.316h38.227a3.316 3.316.0 0 0 3.316-3.316v-.386a3.318 3.318.0 0 0-3.316-3.318" transform="translate(-369.591 574.476)" fill="#6186c6"/><path id="path184" d="M846.68-423.337h-5.568a2.647 2.647.0 0 1-2.646-2.646v-5.226a2.647 2.647.0 0 1 2.646-2.646h5.568a2.648 2.648.0 0 1 2.648 2.646v5.226a2.648 2.648.0 0 1-2.648 2.646" transform="translate(-234.535 534.127)" fill="#eb4d44"/><path id="path186" d="M425.225-240.1h-7.371a3.508 3.508.0 0 1-3.509-3.507v-6.919a3.509 3.509.0 0 1 3.509-3.509h7.371a3.509 3.509.0 0 1 3.509 3.509v6.919a3.508 3.508.0 0 1-3.509 3.507" transform="translate(-356.7 585.925)" fill="#eb4d44"/><path id="path188" d="M721.684-479.131v.859H748.89a1.684 1.684.0 0 1 1.664 1.7v13.339a1.683 1.683.0 0 1-1.664 1.7H734.542l-7.163 6.138v-5.734l-5.724-.163h0a1.685 1.685.0 0 1-1.631-1.7v-13.578a1.684 1.684.0 0 1 1.664-1.7v-1.717a3.4 3.4.0 0 0-3.382 3.416V-463a3.4 3.4.0 0 0 3.315 3.416h-.007l4.051.117v7.8l9.516-8.154H748.89a3.4 3.4.0 0 0 3.382-3.416v-13.339a3.4 3.4.0 0 0-3.382-3.416H721.684v.859" transform="translate(-269.148 520.839)" fill="#6186c6"/><path id="path190" d="M868.533-290.382h-.859a7.527 7.527.0 0 1-2.167 5.308 7.3 7.3.0 0 1-5.217 2.191 7.3 7.3.0 0 1-5.217-2.191 7.542 7.542.0 0 1-2.167-5.308 7.541 7.541.0 0 1 2.167-5.307 7.3 7.3.0 0 1 5.217-2.193 7.294 7.294.0 0 1 5.217 2.193 7.527 7.527.0 0 1 2.167 5.307h1.717a9.167 9.167.0 0 0-9.1-9.217 9.168 9.168.0 0 0-9.1 9.217 9.167 9.167.0 0 0 9.1 9.217 9.166 9.166.0 0 0 9.1-9.217h-.859" transform="translate(-230.871 572.799)" fill="#feede2"/><path id="path192" d="M492.928-392.518h-.859a7.527 7.527.0 0 1-2.167 5.308 7.308 7.308.0 0 1-5.217 2.193 7.311 7.311.0 0 1-5.217-2.193 7.542 7.542.0 0 1-2.167-5.308 7.549 7.549.0 0 1 2.167-5.308 7.3 7.3.0 0 1 5.217-2.191 7.293 7.293.0 0 1 5.217 2.193 7.526 7.526.0 0 1 2.167 5.307h1.717a9.166 9.166.0 0 0-9.1-9.217 9.167 9.167.0 0 0-9.1 9.217 9.17 9.17.0 0 0 9.1 9.219 9.169 9.169.0 0 0 9.1-9.219h-.859" transform="translate(-339.061 543.38)" fill="#e43b31"/></g></g></g><g id="Group_32817" data-name="Group 32817"><path id="path172-2" data-name="path172" d="M426.617-377.925A27.19 27.19.0 0 1 399.3-350.87a27.19 27.19.0 0 1-27.322-27.055A27.19 27.19.0 0 1 399.3-404.98a27.19 27.19.0 0 1 27.322 27.055" transform="translate(1206.026 605.98)" fill="#eb4d44"/><g id="noun_Location_3668976" transform="translate(1593.678 214.734)"><g id="Group_32816" data-name="Group 32816" transform="translate(1.322 0.266)"><path id="Path_39420" data-name="Path 39420" d="M11.565.266A10.256 10.256.0 0 0 1.322 10.508c0 4.113 2.456 8.388 4.833 11.716a51.549 51.549.0 0 0 3.287 4.118h-1.6a.932.932.0 1 0 0 1.863h7.445a.932.932.0 1 0 0-1.863H13.7a51.586 51.586.0 0 0 3.287-4.118c2.377-3.328 4.833-7.6 4.833-11.716A10.263 10.263.0 0 0 11.565.266zm0 1.855a8.377 8.377.0 0 1 8.387 8.387c0 3.337-2.2 7.444-4.482 10.636a36.211 36.211.0 0 1-3.9 4.675 35.985 35.985.0 0 1-3.905-4.675c-2.279-3.191-4.482-7.3-4.482-10.636A8.371 8.371.0 0 1 11.565 2.121zm0 3.727a4.658 4.658.0 1 0 4.662 4.66A4.672 4.672.0 0 0 11.565 5.848zm0 1.863a2.795 2.795.0 1 1-2.79 2.8A2.788 2.788.0 0 1 11.565 7.711z" transform="translate(-1.322 -0.266)" fill="#fff" fill-rule="evenodd"/></g></g></g></g></svg>