<svg xmlns="http://www.w3.org/2000/svg" width="25.227" height="33" viewBox="0 0 25.227 33">
  <g id="Do_s_Dont_s" data-name="Do&apos;s &amp; Dont&apos;s" transform="translate(-16.196 -9)">
    <path id="Path_39539" data-name="Path 39539" d="M39.178,9H18.44A2.191,2.191,0,0,0,16.2,11.12V39.88A2.191,2.191,0,0,0,18.44,42H39.179a2.191,2.191,0,0,0,2.244-2.12V11.12A2.192,2.192,0,0,0,39.178,9ZM25.437,37.147a.97.97,0,0,1-.971.971H20.585a.97.97,0,0,1-.971-.971V33.264a.97.97,0,0,1,.971-.971h3.882a.97.97,0,0,1,.971.971Zm0-9.706a.97.97,0,0,1-.971.971H20.585a.97.97,0,0,1-.971-.971V23.559a.97.97,0,0,1,.971-.971h3.882a.97.97,0,0,1,.971.971Zm0-9.706a.97.97,0,0,1-.971.971H20.585a.97.97,0,0,1-.971-.971V13.853a.97.97,0,0,1,.971-.971h3.882a.97.97,0,0,1,.971.971ZM38.055,36.176H28.349a.971.971,0,0,1,0-1.941h9.706a.971.971,0,0,1,0,1.941Zm0-9.706H28.349a.971.971,0,0,1,0-1.941h9.706a.971.971,0,1,1,0,1.941Zm0-9.706H28.349a.971.971,0,0,1,0-1.941h9.706a.971.971,0,1,1,0,1.941Z" transform="translate(0 0)" fill="#fcfdff"/>
    <path id="Path_39540" data-name="Path 39540" d="M29.737,47.639l1.125-1.125a.776.776,0,1,0-1.1-1.1l-1.125,1.125-1.125-1.125a.776.776,0,0,0-1.1,1.1l1.125,1.125-1.125,1.125a.776.776,0,1,0,1.1,1.1l1.125-1.125,1.125,1.125a.776.776,0,1,0,1.1-1.1Z" transform="translate(-6.113 -22.139)" fill="#fcfdff"/>
  </g>
</svg>
