<svg id="Features" xmlns="http://www.w3.org/2000/svg" width="36.852" height="26.25" viewBox="0 0 36.852 26.25">
  <g id="Group_32849" data-name="Group 32849" transform="translate(0 0)">
    <path id="Path_39443" data-name="Path 39443" d="M40.166,998.164a3.156,3.156,0,0,0-1.335.327l-7.854,3.77a2.413,2.413,0,0,0-2.278-1.427l-4.5.144a10.12,10.12,0,0,1-3-.576,13.592,13.592,0,0,0-4.045-.641,17.093,17.093,0,0,0-4.935.969v-.982a.8.8,0,0,0-.052-.314.842.842,0,0,0-.458-.458.876.876,0,0,0-.327-.065H6.85a.877.877,0,0,0-.327.065.842.842,0,0,0-.458.458.8.8,0,0,0-.052.314v12.462a.864.864,0,0,0,.052.327.8.8,0,0,0,.183.262.859.859,0,0,0,.275.183.877.877,0,0,0,.327.065H11.38a.876.876,0,0,0,.327-.065.859.859,0,0,0,.275-.183.8.8,0,0,0,.183-.262.863.863,0,0,0,.052-.327v-1.073c5.516-.976,8.8.694,13.771.694a8.057,8.057,0,0,0,3.456-1.2c1.348-.7,2.891-1.637,4.451-2.644,3.12-2.014,6.308-4.318,7.972-5.446a2.245,2.245,0,0,0,.982-1.584,2.487,2.487,0,0,0-.432-1.689A2.677,2.677,0,0,0,40.166,998.164Zm-32.477,2.422h.759v10.787H7.688v-10.787Z" transform="translate(-6.013 -986.797)" fill="#fcfdff" fill-rule="evenodd"/>
    <path id="Path_39444" data-name="Path 39444" d="M39.531,983.53a.838.838,0,0,0-.825.85v2h-2a.838.838,0,1,0,0,1.675h2v2a.838.838,0,1,0,1.675,0v-2h2a.838.838,0,1,0,0-1.675h-2v-2a.838.838,0,0,0-.85-.849Z" transform="translate(-18.88 -978.294)" fill="#fcfdff" fill-rule="evenodd"/>
    <path id="Path_39445" data-name="Path 39445" d="M33.023,971.03a.838.838,0,0,0-.825.85v.8h-.8a.838.838,0,1,0,0,1.675h.8v.8a.838.838,0,1,0,1.675,0v-.8h.8a.838.838,0,1,0,0-1.675h-.8v-.8a.838.838,0,0,0-.85-.85Z" transform="translate(-8.946 -971.03)" fill="#fcfdff" fill-rule="evenodd"/>
    <path id="Path_39446" data-name="Path 39446" d="M49.383,971.03a.838.838,0,0,0-.825.85v.8h-.8a.838.838,0,1,0,0,1.675h.8v.8a.838.838,0,1,0,1.675,0v-.8h.8a.838.838,0,1,0,0-1.675h-.8v-.8a.838.838,0,0,0-.85-.85Z" transform="translate(-32.159 -971.03)" fill="#fcfdff" fill-rule="evenodd"/>
  </g>
</svg>
