<svg xmlns="http://www.w3.org/2000/svg" width="32.782" height="33" viewBox="0 0 32.782 33">
  <g id="Get_quote" data-name="Get quote" transform="translate(-13.383 -12.242)">
    <path id="Path_39523" data-name="Path 39523" d="M31.916,15.39h7.111a1.5,1.5,0,0,0,1.384-1.574,1.5,1.5,0,0,0-1.422-1.574H31.916a1.5,1.5,0,0,0-1.422,1.574,1.519,1.519,0,0,0,1.422,1.574Z" transform="translate(-7.479)" fill="#fcfdff" fill-rule="evenodd"/>
    <path id="Path_39524" data-name="Path 39524" d="M38.647,13.559H35.229a2.584,2.584,0,0,1,.06.566c0,1.416-1.012,2.811-2.245,2.811h-10.5c-1.274,0-2.306-1.4-2.306-2.811a2.723,2.723,0,0,1,.06-.566H16.843c-2.772,0-3.46,1.577-3.46,3.863V40.016c0,2.448.971,3.823,3.661,3.823h18.1a6.276,6.276,0,0,1,4.794-10.3,6.364,6.364,0,0,1,2.488.506V17.4c0-2.265-1.233-3.843-3.782-3.843ZM27.34,37.063H20.564c-.546,0-.891-.587-.891-1.134a1.1,1.1,0,0,1,1.012-1.092h6.736a1.138,1.138,0,0,1,1.052,1.092,1.253,1.253,0,0,1-1.133,1.134Zm8.01-6.231H20.5A1.3,1.3,0,0,1,19.411,29.6a1.027,1.027,0,0,1,1.011-1.012H35.229A1.062,1.062,0,0,1,36.28,29.6c0,.545-.384,1.233-.931,1.233Zm.061-6.433H20.564c-.546,0-.891-.587-.891-1.133a1.1,1.1,0,0,1,1.012-1.092H35.492a1.136,1.136,0,0,1,1.051,1.092A1.269,1.269,0,0,1,35.411,24.4Z" transform="translate(0 -0.576)" fill="#fcfdff" fill-rule="evenodd"/>
    <g id="Group_32997" data-name="Group 32997" transform="translate(34.888 33.918)">
      <path id="Path_39525" data-name="Path 39525" d="M60.064,56.776a.8.8,0,0,0-.16.484.765.765,0,0,0,.146.448,1.011,1.011,0,0,0,.442.336V56.466A.85.85,0,0,0,60.064,56.776Z" transform="translate(-55.22 -53.247)" fill="#fcfdff" fill-rule="evenodd"/>
      <path id="Path_39526" data-name="Path 39526" d="M62.122,61.926V63.7a.927.927,0,0,0,.556-.317.889.889,0,0,0,.214-.594.806.806,0,0,0-.18-.527A1.144,1.144,0,0,0,62.122,61.926Z" transform="translate(-56.19 -55.633)" fill="#fcfdff" fill-rule="evenodd"/>
      <path id="Union_2" data-name="Union 2" d="M0,5.661a5.639,5.639,0,1,1,5.641,5.663A5.651,5.651,0,0,1,0,5.661Z" transform="translate(0 0)" fill="#fcfdff"/>
    </g>
  </g>
</svg>
