<svg xmlns="http://www.w3.org/2000/svg" width="99.998" height="100" viewBox="0 0 99.998 100">
  <g id="Go_to_top" data-name="Go to top" transform="translate(12720 20384)">
    <ellipse id="Ellipse_444" data-name="Ellipse 444" cx="49.985" cy="50" rx="49.985" ry="50" transform="translate(-12720 -20384)" fill="#fff"/>
    <g id="noun_Arrow_3350368" transform="translate(-12719.978 -20384)">
      <g id="Calque_2" data-name="Calque 2" transform="translate(0)">
        <g id="Calque_2-2" data-name="Calque 2">
          <path id="Path_39482" data-name="Path 39482" d="M50,0A49.985,49.985,0,1,0,98.784,39.118,49.985,49.985,0,0,0,50,0ZM65.836,49.779a5.675,5.675,0,0,1-4.612,2.137H55.537v15.7a3.393,3.393,0,0,1-.229,1.207,5.542,5.542,0,0,1-5.361,3.2,5.566,5.566,0,0,1-5.276-3.2,3.622,3.622,0,0,1-.217-1.207v-15.7H38.767a5.675,5.675,0,0,1-4.612-2.125,3.477,3.477,0,0,1,0-4.214L45.4,30.087A5.675,5.675,0,0,1,50,27.962a5.747,5.747,0,0,1,4.612,2.113L65.824,45.542A3.513,3.513,0,0,1,65.836,49.779Z" transform="translate(-0.008)" fill="#062251"/>
        </g>
      </g>
    </g>
  </g>
</svg>
