<svg xmlns="http://www.w3.org/2000/svg" width="42.641" height="43" viewBox="0 0 42.641 43">
  <g id="Health_Insurance_Blue" data-name="Health Insurance Blue" transform="translate(-6.736 -6.393)">
    <g id="Group_32982" data-name="Group 32982" transform="translate(6.736 6.393)">
      <path id="Path_39496" data-name="Path 39496" d="M48.131,51.029a.7.7,0,0,1-.7.7H43.016v4.419a.7.7,0,0,1-.7.7h-2.7a.7.7,0,0,1-.7-.7V51.725h-4.42a.7.7,0,0,1-.7-.7v-2.7a.7.7,0,0,1,.7-.7h4.42v-4.42a.7.7,0,0,1,.7-.7h2.7a.7.7,0,0,1,.7.7v4.42h4.418a.7.7,0,0,1,.7.7v2.7Z" transform="translate(-19.65 -23.625)" fill="#003da8"/>
      <path id="Path_39497" data-name="Path 39497" d="M47.544,23.668H8.569A1.832,1.832,0,0,0,6.736,25.5V55.8a1.832,1.832,0,0,0,1.833,1.832H47.544A1.832,1.832,0,0,0,49.377,55.8V25.5A1.832,1.832,0,0,0,47.544,23.668ZM28.056,52.544a11.894,11.894,0,1,1,11.9-11.893A11.894,11.894,0,0,1,28.056,52.544Z" transform="translate(-6.736 -14.633)" fill="#003da8"/>
      <path id="Path_39498" data-name="Path 39498" d="M38.018,10.416A6.756,6.756,0,0,1,44.1,14.234H48.38a10.768,10.768,0,0,0-20.725,0h4.284A6.756,6.756,0,0,1,38.018,10.416Z" transform="translate(-16.714 -6.393)" fill="#003da8"/>
    </g>
  </g>
</svg>
