<svg id="Info" xmlns="http://www.w3.org/2000/svg" width="34" height="34" viewBox="0 0 34 34">
  <path id="Path_39462" data-name="Path 39462" d="M17.111,2.1A15.111,15.111,0,1,0,32.222,17.211,15.111,15.111,0,0,0,17.111,2.1Zm-.094,4.987a1.889,1.889,0,1,1-1.889,1.889A1.889,1.889,0,0,1,17.017,7.087Zm3.4,20.069H13.806a1.322,1.322,0,1,1,0-2.644h1.983V15.823H14.278a1.322,1.322,0,1,1,0-2.644h4.156V24.512h1.983a1.322,1.322,0,1,1,0,2.644Z" transform="translate(-0.111 -0.117)" fill="#003da8"/>
  <rect id="Rectangle_1100" data-name="Rectangle 1100" width="34" height="34" fill="rgba(0,0,0,0)"/>
</svg>
