<svg xmlns="http://www.w3.org/2000/svg" width="35.097" height="32" viewBox="0 0 35.097 32">
  <path id="Life_cycle_of_Bond" data-name="Life cycle of Bond" d="M83.355,1025.346v-3.7H74.062a.513.513,0,0,1-.513-.521V1020.1a.515.515,0,0,1,.515-.521H84.387a1.034,1.034,0,0,1,1.032,1.032v4.733l.97-.97a.516.516,0,0,1,.733.005l.723.723a.524.524,0,0,1,0,.738l-2.729,2.725a1.024,1.024,0,0,1-1.46,0l-2.729-2.725a.52.52,0,0,1,0-.738l.723-.723a.521.521,0,0,1,.733-.005Zm-6.8,19.009h6.8v-3.613a.519.519,0,0,1,.521-.516H84.9a.516.516,0,0,1,.521.516v4.645a1.034,1.034,0,0,1-1.032,1.032H76.557l.97.97a.518.518,0,0,1,0,.733l-.723.722a.515.515,0,0,1-.736,0l-2.729-2.73a1.027,1.027,0,0,1,0-1.456l2.729-2.73a.524.524,0,0,1,.736,0l.723.723a.515.515,0,0,1,0,.733l-.97.97ZM59.1,1017H70.452a1.034,1.034,0,0,1,1.032,1.032v5.161a1.034,1.034,0,0,1-1.032,1.032H59.1a1.034,1.034,0,0,1-1.032-1.032v-5.161A1.034,1.034,0,0,1,59.1,1017Zm19.613,13.935H90.065a1.034,1.034,0,0,1,1.032,1.032v5.161a1.034,1.034,0,0,1-1.032,1.032H78.71a1.034,1.034,0,0,1-1.032-1.032v-5.161A1.034,1.034,0,0,1,78.71,1030.935Zm-21.677,10.839H68.387a1.034,1.034,0,0,1,1.032,1.032v5.161A1.034,1.034,0,0,1,68.387,1049H57.032A1.034,1.034,0,0,1,56,1047.968v-5.161A1.034,1.034,0,0,1,57.032,1041.774Z" transform="translate(-56 -1017)" fill="#fcfdff"/>
</svg>
