<svg xmlns="http://www.w3.org/2000/svg" width="44.334" height="44" viewBox="0 0 44.334 44">
  <g id="Life_insurance_blue" data-name="Life insurance blue" transform="translate(-8.72 -9.976)">
    <g id="Group_32981" data-name="Group 32981" transform="translate(8.72 9.976)">
      <path id="Path_39495" data-name="Path 39495" d="M30.9,35.9s-9.248-5.885-13.451-11.63h6.585a1.07,1.07,0,0,0,.7-.28l.981-1.822L28.1,30.3c.14.841,1.261.7,1.541,0L33,18.386l2.8,8.547a.769.769,0,0,0,1.4.28l1.962-2.942h5.044C40.145,30.016,30.9,35.9,30.9,35.9ZM8.759,27.354,11,40.1a4,4,0,0,0,1.261,2.382c1.681,1.261,8.127,5.745,8.127,8.267v3.223H29.5l-.14-12.05c0-.841-.14-1.4-2.1-2.242L18.287,35.62C16.045,34.64,14.5,38,16.746,38.983l7.566,3.363a.377.377,0,1,1-.28.7l-8.407-3.783c-.981-.42-.841-.7-1.121-1.541L12.122,27.073C11.422,24.551,8.339,25.112,8.759,27.354Zm44.277,0L50.654,40.1a2.915,2.915,0,0,1-1.261,2.382c-1.681,1.261-7.987,5.745-7.987,8.267v3.223H32.3V41.926c0-.841.14-1.4,2.1-2.242l9.108-4.063a1.822,1.822,0,1,1,1.4,3.363l-7.566,3.363a.377.377,0,1,0,.28.7l8.407-3.783c.981-.42.981-.7,1.121-1.541l2.522-10.649C50.234,24.551,53.316,25.112,53.036,27.354ZM16.466,22.73a6.621,6.621,0,0,1-.981-3.083c0-9.948,11.63-12.61,15.413-6.165C34.681,7.037,46.17,9.7,46.17,19.647a6.621,6.621,0,0,1-.981,3.083H38.744a.771.771,0,0,0-.7.42l-1.261,1.822L33.7,15.444a.73.73,0,0,0-1.4,0l-3.5,11.77-1.962-7.146a.883.883,0,0,0-1.541-.28L23.612,22.73Z" transform="translate(-8.72 -9.976)" fill="#003da8" fill-rule="evenodd"/>
    </g>
  </g>
</svg>
