<svg id="Location" xmlns="http://www.w3.org/2000/svg" width="28" height="28" viewBox="0 0 28 28">
  <path id="Path_39419" data-name="Path 39419" d="M15.382,2A9.17,9.17,0,0,0,6.22,11.123c0,3.632,2.038,6.673,3.531,8.89l.272.4A77.475,77.475,0,0,0,14.8,26.64l.591.692.591-.692a77.638,77.638,0,0,0,4.776-6.222l.272-.412c1.486-2.217,3.523-5.25,3.523-8.882A9.17,9.17,0,0,0,15.382,2Zm0,13.222a5.1,5.1,0,1,1,5.1-5.1A5.1,5.1,0,0,1,15.382,15.222Z" transform="translate(-1.382 -0.444)" fill="#003da8"/>
  <circle id="Ellipse_429" data-name="Ellipse 429" cx="2.901" cy="2.901" r="2.901" transform="translate(11.099 6.774)" fill="#003da8"/>
  <rect id="Rectangle_1062" data-name="Rectangle 1062" width="28" height="28" fill="rgba(0,0,0,0)"/>
</svg>
