<svg xmlns="http://www.w3.org/2000/svg" width="34.967" height="50" viewBox="0 0 34.967 50">
  <g id="Mutual_Funds_white" data-name="Mutual Funds white" transform="translate(-136 -114.411)">
    <path id="Path_39512" data-name="Path 39512" d="M167.788,128.717A14.306,14.306,0,1,0,152.609,143v6.415a11.637,11.637,0,0,0-5.725-4.18,11.383,11.383,0,0,0-10.549,1.868.874.874,0,0,0-.3.929,11.384,11.384,0,0,0,16.576,6.786v8.724a.874.874,0,0,0,1.748,0v-8.72a11.394,11.394,0,0,0,16.575-6.789.874.874,0,0,0-.3-.929,11.388,11.388,0,0,0-10.553-1.869,11.641,11.641,0,0,0-5.721,4.171V143A14.363,14.363,0,0,0,167.788,128.717Zm-14.3,10.874a10.875,10.875,0,1,1,10.874-10.874A10.875,10.875,0,0,1,153.484,139.591Z" transform="translate(0 0)" fill="#fcfdff"/>
    <path id="Path_39513" data-name="Path 39513" d="M202.486,149.959a9.126,9.126,0,1,0,9.126,9.126A9.126,9.126,0,0,0,202.486,149.959Zm2.865,6.562h.829a.874.874,0,1,1,0,1.748h-.828a4.14,4.14,0,0,1-3.937,3.205h-.286l3.162,2.726a.845.845,0,0,1,.086,1.209.877.877,0,0,1-1.233.091l-4.926-4.277a.849.849,0,0,1,.574-1.5h2.624a2.26,2.26,0,0,0,2.111-1.457h-4.735a.874.874,0,1,1,0-1.748h4.734a2.26,2.26,0,0,0-2.11-1.457h-2.624a.874.874,0,1,1,0-1.748h7.389a.874.874,0,1,1,0,1.748h-1.444A3.859,3.859,0,0,1,205.352,156.521Z" transform="translate(-49.003 -30.369)" fill="#fcfdff"/>
  </g>
</svg>
