<svg xmlns="http://www.w3.org/2000/svg" width="76" height="76" viewBox="0 0 76 76">
  <g id="Process" transform="translate(-0.5 -0.5)">
    <path id="Path_39381" data-name="Path 39381" d="M40.52,31.145l-5.792,5.792H15.844a14.844,14.844,0,1,0,0,29.688h4.031a10.923,10.923,0,0,0,21.625,0H54.25a10.938,10.938,0,1,0,0-3.125H41.5a10.923,10.923,0,0,0-21.625,0H15.844a11.719,11.719,0,0,1,0-23.438H34.728l5.792,5.792,2.209-2.209-3.583-3.583H61.156a14.844,14.844,0,1,0,0-29.687H57.125a10.923,10.923,0,0,0-21.625,0H22.75a10.938,10.938,0,1,0,0,3.125H35.5a10.923,10.923,0,0,0,21.625,0h4.031a11.719,11.719,0,1,1,0,23.437H39.147l3.583-3.583Zm24.542,26.1a7.813,7.813,0,1,1-7.812,7.812A7.821,7.821,0,0,1,65.063,57.25Zm-34.375,0a7.813,7.813,0,1,1-7.813,7.812A7.821,7.821,0,0,1,30.688,57.25Zm-18.75-37.5a7.813,7.813,0,1,1,7.813-7.813A7.821,7.821,0,0,1,11.938,19.75Zm34.375,0a7.813,7.813,0,1,1,7.813-7.813A7.821,7.821,0,0,1,46.312,19.75Z" transform="translate(0)" fill="#003da8" stroke="#003da8" stroke-width="1"/>
  </g>
</svg>
