<svg xmlns="http://www.w3.org/2000/svg" width="21.733" height="14.487" viewBox="0 0 21.733 14.487">
  <g id="Quote" transform="translate(-0.044 -85.381)">
    <g id="Group_32807" data-name="Group 32807" transform="translate(0.044 85.381)">
      <path id="Path_39385" data-name="Path 39385" d="M304.429,96.447a8.262,8.262,0,0,1-.726,3.37c2.741-1.837,4.48-4.46,4.552-7.379l.053-.06v-7h-9.029v9.056h4.9A8.125,8.125,0,0,1,304.429,96.447Z" transform="translate(-286.575 -85.381)" fill="#fcfdff"/>
      <path id="Path_39386" data-name="Path 39386" d="M4.978,94.437a8.1,8.1,0,0,1,.267,2.06,8.27,8.27,0,0,1-.727,3.371c2.777-1.861,4.525-4.527,4.554-7.49h0v-7H.044v9.056H4.978Z" transform="translate(-0.044 -85.381)" fill="#fcfdff"/>
    </g>
  </g>
</svg>
