<svg xmlns="http://www.w3.org/2000/svg" width="22.514" height="30" viewBox="0 0 22.514 30">
  <g id="Required_Documents" data-name="Required Documents" transform="translate(-8 -2.015)">
    <g id="Group_32854" data-name="Group 32854" transform="translate(8 2.015)">
      <g id="Group_32852" data-name="Group 32852" transform="translate(16.885 0.4)">
        <path id="Path_39455" data-name="Path 39455" d="M35,7.259a.626.626,0,0,0,.625.625h4.6a1.894,1.894,0,0,0-.15-.182l-4.9-4.9A1.907,1.907,0,0,0,35,2.655Z" transform="translate(-34.998 -2.655)" fill="#fcfdff"/>
      </g>
      <g id="Group_32853" data-name="Group 32853">
        <path id="Path_39456" data-name="Path 39456" d="M25.51,8.9a1.878,1.878,0,0,1-1.876-1.876v-5H9.876A1.878,1.878,0,0,0,8,3.891V30.126A1.878,1.878,0,0,0,9.876,32l18.2.013a2.434,2.434,0,0,0,2.439-2.433V8.9ZM11.751,8.261h5V9.511h-5Zm0,3.752H26.761v1.251H11.751V12.013Zm0,3.752H26.761v1.251H11.751V15.765ZM15.5,28.273H11.751V27.022H15.5Zm2.5-3.752H11.751V23.27h6.254Zm2.5-3.752H11.751V19.518h8.755Zm7.5,7.659a1.252,1.252,0,0,1-1.251,1.251H22.383a1.252,1.252,0,0,1-1.251-1.251V22.645a1.252,1.252,0,0,1,1.251-1.251h4.378a1.252,1.252,0,0,1,1.251,1.251Z" transform="translate(-8 -2.015)" fill="#fcfdff"/>
      </g>
    </g>
  </g>
</svg>
