<svg xmlns="http://www.w3.org/2000/svg" width="249.937" height="53.39" viewBox="0 0 249.937 53.39">
  <g id="Shopfins_Logo_Blue" data-name="Shopfins Logo Blue" transform="translate(-337 -242)">
    <g id="Group_33" data-name="Group 33" transform="translate(337 242)">
      <path id="Path_64" data-name="Path 64" d="M15.516-24.007a16.242,16.242,0,0,1-6.207-1.124A10.117,10.117,0,0,1,4.924-28.46a9.093,9.093,0,0,1-1.732-5.307h8.186a3.972,3.972,0,0,0,1.214,2.676,3.9,3.9,0,0,0,2.7.922,4.22,4.22,0,0,0,2.7-.787,2.632,2.632,0,0,0,.989-2.181,2.582,2.582,0,0,0-.787-1.934,6.349,6.349,0,0,0-1.934-1.259A31.109,31.109,0,0,0,13-37.455,35.5,35.5,0,0,1,8-39.344a9.224,9.224,0,0,1-3.328-2.789,7.77,7.77,0,0,1-1.394-4.813,8.275,8.275,0,0,1,3.193-6.9,13.122,13.122,0,0,1,8.321-2.5,13.274,13.274,0,0,1,8.411,2.5A8.936,8.936,0,0,1,26.625-46.9H18.3a3.254,3.254,0,0,0-1.124-2.406,3.961,3.961,0,0,0-2.654-.877,3.307,3.307,0,0,0-2.249.742,2.677,2.677,0,0,0-.855,2.136,2.648,2.648,0,0,0,1.439,2.384,23.593,23.593,0,0,0,4.5,1.844A41.6,41.6,0,0,1,22.33-41.1a9.461,9.461,0,0,1,3.306,2.744,7.344,7.344,0,0,1,1.394,4.633,9.091,9.091,0,0,1-1.372,4.9,9.608,9.608,0,0,1-3.98,3.508A13.626,13.626,0,0,1,15.516-24.007ZM47.179-49.689a8.929,8.929,0,0,1,6.926,2.856q2.609,2.856,2.609,7.848v14.662H49.068V-37.95a5.508,5.508,0,0,0-1.3-3.913,4.573,4.573,0,0,0-3.508-1.394,4.573,4.573,0,0,0-3.508,1.394,5.508,5.508,0,0,0-1.3,3.913v13.628H31.752V-57.605h7.691v11.559A8.221,8.221,0,0,1,42.637-48.7,10.206,10.206,0,0,1,47.179-49.689ZM73.491-23.962a13.853,13.853,0,0,1-6.634-1.574,11.527,11.527,0,0,1-4.633-4.5,13.44,13.44,0,0,1-1.687-6.837,13.332,13.332,0,0,1,1.709-6.814,11.6,11.6,0,0,1,4.678-4.52,13.985,13.985,0,0,1,6.657-1.574A13.985,13.985,0,0,1,80.238-48.2a11.6,11.6,0,0,1,4.678,4.52,13.332,13.332,0,0,1,1.709,6.814,13.2,13.2,0,0,1-1.732,6.814,11.709,11.709,0,0,1-4.723,4.52A14.118,14.118,0,0,1,73.491-23.962Zm0-6.657a5.01,5.01,0,0,0,3.756-1.619A6.432,6.432,0,0,0,78.8-36.871,6.552,6.552,0,0,0,77.292-41.5a4.869,4.869,0,0,0-3.711-1.619,4.881,4.881,0,0,0-3.733,1.6,6.6,6.6,0,0,0-1.484,4.655,6.682,6.682,0,0,0,1.462,4.633A4.731,4.731,0,0,0,73.491-30.619ZM98.408-45.866a8.349,8.349,0,0,1,3.1-2.834,9.527,9.527,0,0,1,4.633-1.079,10.392,10.392,0,0,1,5.622,1.574,10.9,10.9,0,0,1,3.98,4.5,15,15,0,0,1,1.462,6.792,15.142,15.142,0,0,1-1.462,6.814,11.033,11.033,0,0,1-3.98,4.543,10.283,10.283,0,0,1-5.622,1.6,9.56,9.56,0,0,1-4.61-1.079,8.452,8.452,0,0,1-3.126-2.789v15.472H90.717V-49.419h7.691Zm10.974,8.95a6.208,6.208,0,0,0-1.6-4.52,5.273,5.273,0,0,0-3.935-1.642,5.188,5.188,0,0,0-3.891,1.664,6.288,6.288,0,0,0-1.6,4.543,6.288,6.288,0,0,0,1.6,4.543,5.188,5.188,0,0,0,3.891,1.664,5.226,5.226,0,0,0,3.913-1.687A6.316,6.316,0,0,0,109.383-36.916Zm24.467-6.117h-4.138v18.71h-7.691v-18.71h-2.789v-6.387h2.789v-.72q0-4.633,2.654-7.039t7.781-2.406q.855,0,1.259.045v6.522a4.413,4.413,0,0,0-3.1.63,3.464,3.464,0,0,0-.9,2.744v.225h4.138Zm11.289-6.387v25.1h-7.691v-25.1Zm20.869-.27a9.108,9.108,0,0,1,7.039,2.856,11.14,11.14,0,0,1,2.631,7.848v14.662h-7.646V-37.95a5.508,5.508,0,0,0-1.3-3.913,4.573,4.573,0,0,0-3.508-1.394,4.573,4.573,0,0,0-3.508,1.394,5.508,5.508,0,0,0-1.3,3.913v13.628h-7.691v-25.1h7.691v3.328a8.114,8.114,0,0,1,3.148-2.631A10.009,10.009,0,0,1,166.009-49.689Zm25.232,25.727a14.425,14.425,0,0,1-5.847-1.124,9.986,9.986,0,0,1-4.048-3.081,8.1,8.1,0,0,1-1.664-4.385h7.6a2.922,2.922,0,0,0,1.214,2.114,4.3,4.3,0,0,0,2.654.81,3.788,3.788,0,0,0,2.226-.562,1.722,1.722,0,0,0,.787-1.462,1.686,1.686,0,0,0-1.124-1.6A22.716,22.716,0,0,0,189.4-34.4a34.2,34.2,0,0,1-4.5-1.327,7.771,7.771,0,0,1-3.1-2.2,6.006,6.006,0,0,1-1.3-4.07,6.912,6.912,0,0,1,1.192-3.935,8.025,8.025,0,0,1,3.508-2.811,13.433,13.433,0,0,1,5.51-1.034,11.045,11.045,0,0,1,7.444,2.339,9.1,9.1,0,0,1,3.126,6.207h-7.106a3.063,3.063,0,0,0-1.147-2.069,3.978,3.978,0,0,0-2.541-.765,3.514,3.514,0,0,0-2.069.517,1.651,1.651,0,0,0-.72,1.417,1.729,1.729,0,0,0,1.147,1.619,18.37,18.37,0,0,0,3.576,1.079,39.117,39.117,0,0,1,4.543,1.417,7.836,7.836,0,0,1,3.081,2.249,6.363,6.363,0,0,1,1.372,4.16,6.6,6.6,0,0,1-1.237,3.935,8.18,8.18,0,0,1-3.553,2.721A13.589,13.589,0,0,1,191.241-23.962Z" transform="translate(48.531 65.748)" fill="#003da8"/>
      <g id="Group_32" data-name="Group 32">
        <g id="noun_Location_2885745">
          <g id="Group_22" data-name="Group 22">
            <path id="Path_56" data-name="Path 56" d="M20.107,0A20.239,20.239,0,0,1,40.392,20.107c0,12.1-12.456,24.2-20.285,32.563C12.278,44.307,0,32.207,0,20.107A20.2,20.2,0,0,1,20.107,0Zm0,8.541A11.566,11.566,0,1,1,8.541,20.107,11.543,11.543,0,0,1,20.107,8.541Z" fill="#003da8" fill-rule="evenodd"/>
          </g>
        </g>
        <path id="Path_57" data-name="Path 57" d="M6.33-27.862A2.764,2.764,0,0,0,5.09-29.028a3.894,3.894,0,0,0-1.781-.4H1.191l.755-1.527h8.906L10.1-29.43H7.11a2.472,2.472,0,0,1,1.363,1.568h2.38L10.1-26.336H8.554q-.378,3.218-4.523,3.218H3.81l5.081,5.2H6.231L1.643-22.765v-1.65h1.6a4.334,4.334,0,0,0,2.463-.558,2,2,0,0,0,.813-1.363H1.191l.755-1.527Z" transform="translate(14.432 45.925)" fill="#003da8"/>
      </g>
    </g>
    <g id="Group_33-2" data-name="Group 33" transform="translate(522.26 247.4)">
      <path id="Path_64-2" data-name="Path 64" d="M233.424-52.555a4.661,4.661,0,0,1-3.306-1.192,3.862,3.862,0,0,1-1.282-2.946,3.912,3.912,0,0,1,1.282-2.991,4.662,4.662,0,0,1,3.306-1.192,4.6,4.6,0,0,1,3.261,1.192,3.912,3.912,0,0,1,1.282,2.991,3.862,3.862,0,0,1-1.282,2.946A4.6,4.6,0,0,1,233.424-52.555Z" transform="translate(-228.836 60.876)" fill="#eb4d44"/>
    </g>
  </g>
</svg>
