<svg xmlns="http://www.w3.org/2000/svg" width="40.826" height="44" viewBox="0 0 40.826 44">
  <g id="Stock_trading_white" data-name="Stock trading white" transform="translate(-5.877 -2.5)">
    <path id="Path_39518" data-name="Path 39518" d="M32.954,38.118l1.064-2.869A.93.93,0,0,0,33.139,34H12.966A6.239,6.239,0,0,0,6.72,39.645l-.833,7.68a1.507,1.507,0,0,0,1.157,1.619c.74.139,1.666.278,2.683.416a.492.492,0,0,1,.416.463l.694,11.8a1.93,1.93,0,0,0,1.943,1.8h5.876a1.962,1.962,0,0,0,1.943-1.8l1.018-20.959a1.905,1.905,0,0,1,1.9-1.9h8.559A1.014,1.014,0,0,0,32.954,38.118Z" transform="translate(0 -16.926)" fill="#fcfdff"/>
    <circle id="Ellipse_448" data-name="Ellipse 448" cx="6.431" cy="6.431" r="6.431" transform="translate(9.311 2.5)" fill="#fcfdff"/>
    <path id="Path_39519" data-name="Path 39519" d="M68.343,40.433,66.493,34.7a1.25,1.25,0,0,0-.74-.787,1.1,1.1,0,0,0-1.064.139L59.6,37.333a1.2,1.2,0,0,0-.555,1.157,1.215,1.215,0,0,0,.787,1.018l1.573.555-3.192,8.976-5-1.758a1.575,1.575,0,0,0-.648-.093,2.1,2.1,0,0,0-.74.139,1.982,1.982,0,0,0-1.157,1.2l-4.3,12.122a2.011,2.011,0,0,0,1.2,2.545,1.722,1.722,0,0,0,.833.093c.093,0,.185-.046.278-.046l.139-.046c.093-.046.185-.046.278-.093a2.163,2.163,0,0,0,1.018-1.11l3.655-10.271,5,1.758a2.011,2.011,0,0,0,2.545-1.2L65.151,41.4l1.573.555a1.352,1.352,0,0,0,1.3-.278A1.24,1.24,0,0,0,68.343,40.433Z" transform="translate(-21.695 -16.835)" fill="#fcfdff"/>
  </g>
</svg>
