<svg xmlns="http://www.w3.org/2000/svg" width="58.346" height="58" viewBox="0 0 58.346 58">
  <g id="Stocks_white" data-name="Stocks white" transform="translate(-2.485 -2.748)">
    <g id="Group_32822" data-name="Group 32822" transform="translate(2.486 2.749)">
      <path id="Path_39437" data-name="Path 39437" d="M35.9,31.58,51.559,15.43l2.579,2.456a1.986,1.986,0,0,0,2.149.43A2.087,2.087,0,0,0,57.638,16.6L58.989,5.052A2.052,2.052,0,0,0,56.656,2.78L45.05,4.561a2.069,2.069,0,0,0-1.658,1.412,1.907,1.907,0,0,0,.553,2.088l2.579,2.456L33.259,24.211l-7.553-7.369a3.491,3.491,0,0,0-2.272-.983A3.645,3.645,0,0,0,20.671,16.9L3.416,34.712a3.7,3.7,0,0,0,.123,5.035,3.506,3.506,0,0,0,1.29.8c.184.061.43.123.675.184.184,0,.368.061.553.061a3.442,3.442,0,0,0,2.456-1.044L23.311,24.4,30.865,31.7A3.578,3.578,0,0,0,35.9,31.58Z" transform="translate(-2.486 -2.749)" fill="#fcfdff"/>
      <path id="Path_39438" data-name="Path 39438" d="M20.743,75.8H10.365A1.94,1.94,0,0,0,8.4,77.765v9.211a1.94,1.94,0,0,0,1.965,1.965H20.743a1.94,1.94,0,0,0,1.965-1.965V77.765A1.979,1.979,0,0,0,20.743,75.8Z" transform="translate(-4.768 -30.941)" fill="#fcfdff"/>
      <path id="Path_39439" data-name="Path 39439" d="M53.643,62.4H43.265A1.94,1.94,0,0,0,41.3,64.365V81.8a1.94,1.94,0,0,0,1.965,1.965H53.643A1.94,1.94,0,0,0,55.608,81.8V64.3A1.927,1.927,0,0,0,53.643,62.4Z" transform="translate(-17.465 -25.77)" fill="#fcfdff"/>
      <path id="Path_39440" data-name="Path 39440" d="M86.543,48.9H76.165A1.94,1.94,0,0,0,74.2,50.865v25.73a1.94,1.94,0,0,0,1.965,1.965H86.543a1.94,1.94,0,0,0,1.965-1.965V50.865A1.94,1.94,0,0,0,86.543,48.9Z" transform="translate(-30.162 -20.56)" fill="#fcfdff"/>
    </g>
  </g>
</svg>
