<svg xmlns="http://www.w3.org/2000/svg" width="36.877" height="34" viewBox="0 0 36.877 34">
  <g id="Subscribe" transform="translate(-2.5 -6.2)">
    <path id="Path_39532" data-name="Path 39532" d="M37.394,6.2H4.521A2.007,2.007,0,0,0,2.5,8.221v7.927a2.031,2.031,0,0,0,2.021,2.021H16.372V16.653A4.345,4.345,0,0,1,20.724,12.3h0a4.378,4.378,0,0,1,4.352,4.352v1.515H37.355a2.031,2.031,0,0,0,2.021-2.021V8.221A1.974,1.974,0,0,0,37.394,6.2Z" fill="#fcfdff"/>
    <path id="Path_39533" data-name="Path 39533" d="M47.931,38.075a2.04,2.04,0,0,0-1.749.971v-.039a2.073,2.073,0,0,0-2.059-2.059,2.04,2.04,0,0,0-1.749.971v-.039a2.073,2.073,0,0,0-2.059-2.059,2.04,2.04,0,0,0-1.749.971V29.8a2.123,2.123,0,0,0-.622-1.477,2.055,2.055,0,0,0-1.477-.622h0a2.073,2.073,0,0,0-2.059,2.059V43.282a.292.292,0,0,1-.194.272.244.244,0,0,1-.311-.078l-2.1-2.1a2.063,2.063,0,0,0-2.642-.233,1.981,1.981,0,0,0-.894,1.438,2.089,2.089,0,0,0,.466,1.632l5.246,6.334a7.713,7.713,0,0,0,5.984,2.8h3.264a6.766,6.766,0,0,0,6.8-6.8V40.1A2.127,2.127,0,0,0,47.931,38.075Z" transform="translate(-15.744 -13.146)" fill="#fcfdff"/>
  </g>
</svg>
