<svg id="Twitter" xmlns="http://www.w3.org/2000/svg" width="40" height="40" viewBox="0 0 40 40">
  <g id="Group_31734" data-name="Group 31734" transform="translate(0)">
    <g id="Path_15" data-name="Path 15" transform="translate(0 0)" fill="none">
      <path d="M20,0A20,20,0,1,1,0,20,20,20,0,0,1,20,0Z" stroke="none"/>
      <path d="M 20.00000190734863 1.000003814697266 C 17.4345817565918 1.000003814697266 14.9464225769043 1.502220153808594 12.60465240478516 2.492702484130859 C 10.34226226806641 3.449611663818359 8.310222625732422 4.819721221923828 6.564971923828125 6.564971923828125 C 4.819721221923828 8.310222625732422 3.449611663818359 10.34226226806641 2.492702484130859 12.60465240478516 C 1.502220153808594 14.9464225769043 1.000003814697266 17.4345817565918 1.000003814697266 20.00000190734863 C 1.000003814697266 22.56543159484863 1.502220153808594 25.05359268188477 2.492702484130859 27.39536285400391 C 3.449611663818359 29.65774154663086 4.819721221923828 31.68979263305664 6.564971923828125 33.43503189086914 C 8.310222625732422 35.18028259277344 10.34226226806641 36.55039215087891 12.60465240478516 37.50730133056641 C 14.9464225769043 38.49778366088867 17.4345817565918 39 20.00000190734863 39 C 22.56543159484863 39 25.05359268188477 38.49778366088867 27.39536285400391 37.50730133056641 C 29.65775299072266 36.55039215087891 31.68979263305664 35.18028259277344 33.43503189086914 33.43503189086914 C 35.18028259277344 31.68979263305664 36.55039215087891 29.65775299072266 37.50730133056641 27.39536285400391 C 38.49778366088867 25.05359268188477 39 22.56543159484863 39 20.00000190734863 C 39 17.4345817565918 38.49778366088867 14.9464225769043 37.50730133056641 12.60465240478516 C 36.55039215087891 10.34226226806641 35.18028259277344 8.310222625732422 33.43503189086914 6.564971923828125 C 31.68979263305664 4.819721221923828 29.65774154663086 3.449611663818359 27.39536285400391 2.492702484130859 C 25.05359268188477 1.502220153808594 22.56543159484863 1.000003814697266 20.00000190734863 1.000003814697266 M 20.00000190734863 3.814697265625e-06 C 31.04571151733398 3.814697265625e-06 40 8.954311370849609 40 20.00000190734863 C 40 31.04571151733398 31.04571151733398 40 20.00000190734863 40 C 8.954311370849609 40 3.814697265625e-06 31.04571151733398 3.814697265625e-06 20.00000190734863 C 3.814697265625e-06 8.954311370849609 8.954311370849609 3.814697265625e-06 20.00000190734863 3.814697265625e-06 Z" stroke="none" fill="#fff"/>
    </g>
    <path id="Path_35178" data-name="Path 35178" d="M82.9,83.779a8.045,8.045,0,0,1-2.262.6,3.853,3.853,0,0,0,1.732-2.116,7.983,7.983,0,0,1-2.5.928A3.989,3.989,0,0,0,77,81.988a3.88,3.88,0,0,0-3.937,3.82,3.709,3.709,0,0,0,.1.872,11.3,11.3,0,0,1-8.115-3.993,3.712,3.712,0,0,0-.533,1.921,3.79,3.79,0,0,0,1.751,3.18,4,4,0,0,1-1.784-.479v.048a3.855,3.855,0,0,0,3.159,3.748,4.071,4.071,0,0,1-1.037.134,3.969,3.969,0,0,1-.74-.069,3.927,3.927,0,0,0,3.679,2.654,8.05,8.05,0,0,1-4.891,1.636,8.28,8.28,0,0,1-.94-.053,11.4,11.4,0,0,0,6.037,1.718,10.957,10.957,0,0,0,11.2-10.875l-.011-.495A7.859,7.859,0,0,0,82.9,83.779Z" transform="translate(-53.083 -69.488)" fill="#fff"/>
  </g>
</svg>
