<svg xmlns="http://www.w3.org/2000/svg" xmlns:xlink="http://www.w3.org/1999/xlink" width="68" height="68" viewBox="0 0 68 68">
  <defs>
    <linearGradient id="linear-gradient" x1="0.504" y1="6.968" x2="0.504" y2="6.951" gradientUnits="objectBoundingBox">
      <stop offset="0" stop-color="#62fa7f"/>
      <stop offset="0.687" stop-color="#22cc40"/>
      <stop offset="1" stop-color="#05b723"/>
    </linearGradient>
  </defs>
  <g id="whatsapp" transform="translate(-5.7 -5)">
    <g id="Icon_6_" transform="translate(5.7 5)">
      <path id="Background_7_" d="M22.986,5H21.158a29.55,29.55,0,0,0-4.34.381A16.505,16.505,0,0,0,13.086,6.6,13.018,13.018,0,0,0,9.736,9.036,13.524,13.524,0,0,0,7.3,12.386a13.759,13.759,0,0,0-1.218,3.655c-.152.914-.3,2.894-.381,4.417V57.542a29.549,29.549,0,0,0,.381,4.34A16.506,16.506,0,0,0,7.3,65.614a13.018,13.018,0,0,0,2.437,3.351A13.524,13.524,0,0,0,13.086,71.4a13.759,13.759,0,0,0,3.655,1.218c.914.152,2.894.3,4.417.381H58.242a29.55,29.55,0,0,0,4.34-.381A16.506,16.506,0,0,0,66.314,71.4a13.018,13.018,0,0,0,3.351-2.437A13.524,13.524,0,0,0,72.1,65.614a13.759,13.759,0,0,0,1.218-3.655c.152-.914.3-2.894.381-4.417V20.458a29.549,29.549,0,0,0-.381-4.34A16.505,16.505,0,0,0,72.1,12.386a13.018,13.018,0,0,0-2.437-3.351A13.524,13.524,0,0,0,66.314,6.6a13.759,13.759,0,0,0-3.655-1.218c-.914-.152-2.894-.3-4.417-.381Z" transform="translate(-5.7 -5)" fill="url(#linear-gradient)"/>
      <path id="WhatsApp-Icon" d="M55.294,45.455c-.609-.3-3.655-1.751-4.188-1.98s-.99-.3-1.371.3-1.6,1.98-1.9,2.361a.929.929,0,0,1-1.295.152,16.822,16.822,0,0,1-4.95-2.97,18.829,18.829,0,0,1-3.427-4.188c-.381-.609,0-.914.3-1.218a13.259,13.259,0,0,0,.914-1.066,6.951,6.951,0,0,0,.609-.99,1.06,1.06,0,0,0-.076-1.066c-.152-.3-1.371-3.274-1.9-4.493-.533-1.142-.99-.99-1.371-1.066H35.5A2.192,2.192,0,0,0,33.9,30a6.825,6.825,0,0,0-2.132,5.026c0,2.97,2.208,5.787,2.513,6.244.3.381,4.34,6.473,10.432,9.062,1.447.609,2.589.99,3.5,1.295a8.668,8.668,0,0,0,3.884.228c1.142-.152,3.655-1.447,4.112-2.817a4.708,4.708,0,0,0,.381-2.817,4.815,4.815,0,0,0-1.295-.761M43.643,61.142a20.253,20.253,0,0,1-10.28-2.817l-.761-.457-7.615,1.98,2.056-7.386-.457-.761a20.11,20.11,0,0,1,31.3-24.824,19.871,19.871,0,0,1,5.863,14.163,20.182,20.182,0,0,1-20.1,20.1m17.133-37.16A24.23,24.23,0,0,0,19.428,41.039a24.5,24.5,0,0,0,3.2,12.031L19.2,65.558l12.793-3.351A24.179,24.179,0,0,0,67.782,41.039a23.645,23.645,0,0,0-7.006-17.057" transform="translate(-8.92 -7.838)" fill="#fff"/>
    </g>
  </g>
</svg>
